<svg width="133" height="133" viewBox="0 0 133 133" fill="none" xmlns="http://www.w3.org/2000/svg">
<circle cx="66.5" cy="66.5" r="66.5" fill="#D9D9D9"/>
<rect x="30.5" y="31.5" width="71" height="71" rx="35.5" fill="white"/>
<g clip-path="url(#clip0_534_1722)">
<path d="M65.9997 69.9331C67.6198 69.9331 68.9331 68.6198 68.9331 66.9997C68.9331 65.3797 67.6198 64.0664 65.9997 64.0664C64.3797 64.0664 63.0664 65.3797 63.0664 66.9997C63.0664 68.6198 64.3797 69.9331 65.9997 69.9331Z" fill="#A0A8B1"/>
<path d="M63.4167 59L61.7392 60.8333H58.8333C57.825 60.8333 57 61.6583 57 62.6667V73.6667C57 74.675 57.825 75.5 58.8333 75.5H73.5C74.5083 75.5 75.3333 74.675 75.3333 73.6667V62.6667C75.3333 61.6583 74.5083 60.8333 73.5 60.8333H70.5942L68.9167 59H63.4167ZM66.1667 72.75C63.6367 72.75 61.5833 70.6967 61.5833 68.1667C61.5833 65.6367 63.6367 63.5833 66.1667 63.5833C68.6967 63.5833 70.75 65.6367 70.75 68.1667C70.75 70.6967 68.6967 72.75 66.1667 72.75Z" fill="#A0A8B1"/>
</g>
<rect x="30.5" y="31.5" width="71" height="71" rx="35.5" stroke="#CFD3D8"/>
<defs>
<clipPath id="clip0_534_1722">
<rect width="22" height="22" fill="white" transform="translate(55 56)"/>
</clipPath>
</defs>
</svg>
