<svg width="24" height="24" viewBox="0 0 24 24" fill="none" xmlns="http://www.w3.org/2000/svg">
<g id="dashicons:awards">
<path id="Vector" d="M5.35173 6.19199L5.99973 8.95199L5.35173 11.7L7.76373 13.188L9.23973 15.6L11.9997 14.952L14.7597 15.6L16.2357 13.188L18.6477 11.7L17.9997 8.95199L18.6477 6.19199L16.2477 4.70399L14.7597 2.29199L11.9997 2.95199L9.25173 2.30399L7.75173 4.70399L5.35173 6.19199ZM12.0117 13.8C10.7387 13.8 9.51779 13.2943 8.61761 12.3941C7.71744 11.4939 7.21173 10.273 7.21173 8.99999C7.21173 7.72695 7.71744 6.50605 8.61761 5.60588C9.51779 4.70571 10.7387 4.19999 12.0117 4.19999C14.6517 4.19999 16.7997 6.34799 16.7997 8.98799C16.7997 11.652 14.6517 13.8 12.0117 13.8ZM11.9877 12.6C9.99573 12.6 8.39973 10.992 8.39973 8.99999C8.39973 7.01999 9.99573 5.39999 11.9877 5.39999C13.9797 5.39999 15.5997 7.01999 15.5997 8.99999C15.5997 10.992 13.9797 12.6 11.9877 12.6ZM16.5957 13.92L15.0597 16.608L12.5637 16.044L15.5997 23.04L17.2797 20.4H20.2797L16.5957 13.92ZM7.35573 14.004L8.85573 16.704L11.4117 16.092L8.39973 23.04L6.71973 20.4H3.71973L7.35573 14.004Z" fill="white"/>
</g>
</svg>
