<svg width="18" height="18" viewBox="0 0 18 18" fill="none" xmlns="http://www.w3.org/2000/svg">
<g clip-path="url(#clip0_1_954)">
<path d="M12.5813 2.9249L15.4 6.096C15.5187 6.22959 15.5187 6.44756 15.4 6.58115L8.575 14.2593L5.675 14.6214C5.2875 14.6706 4.95938 14.3015 5.00313 13.8655L5.325 10.603L12.15 2.9249C12.2687 2.79131 12.4625 2.79131 12.5813 2.9249ZM17.6437 2.11982L16.1187 0.404199C15.6437 -0.130176 14.8719 -0.130176 14.3938 0.404199L13.2875 1.64873C13.1688 1.78232 13.1688 2.00029 13.2875 2.13389L16.1063 5.30498C16.225 5.43857 16.4188 5.43857 16.5375 5.30498L17.6437 4.06045C18.1187 3.52256 18.1187 2.6542 17.6437 2.11982ZM12 12.171V15.7499H2V4.4999H9.18125C9.28125 4.4999 9.375 4.4542 9.44687 4.37686L10.6969 2.97061C10.9344 2.70342 10.7656 2.2499 10.4312 2.2499H1.5C0.671875 2.2499 0 3.00576 0 3.9374V16.3124C0 17.244 0.671875 17.9999 1.5 17.9999H12.5C13.3281 17.9999 14 17.244 14 16.3124V10.7647C14 10.3886 13.5969 10.2022 13.3594 10.4659L12.1094 11.8722C12.0406 11.953 12 12.0585 12 12.171Z" fill="#3C8DBC"/>
</g>
<defs>
<clipPath id="clip0_1_954">
<rect width="18" height="18" fill="white"/>
</clipPath>
</defs>
</svg>
