<svg width="24" height="24" viewBox="0 0 24 24" fill="none" xmlns="http://www.w3.org/2000/svg">
<g id="arcticons:baidu-map">
<path id="Vector" d="M8.55563 21.7502H15.4556M6.44313 11.3237C4.99013 9.00222 6.03663 5.08722 8.25213 3.47822C9.32683 2.68093 10.6295 2.25049 11.9676 2.25049C13.3058 2.25049 14.6084 2.68093 15.6831 3.47822C18.0496 5.28922 18.9891 8.93222 17.5361 11.2532L11.9676 20.1512L6.44313 11.3237Z" stroke="#3C8DBC" stroke-linecap="round" stroke-linejoin="round"/>
<path id="Vector_2" d="M12.0057 11.739C13.5331 11.739 14.7712 10.5009 14.7712 8.97351C14.7712 7.44616 13.5331 6.20801 12.0057 6.20801C10.4784 6.20801 9.24023 7.44616 9.24023 8.97351C9.24023 10.5009 10.4784 11.739 12.0057 11.739Z" stroke="#3C8DBC" stroke-linecap="round" stroke-linejoin="round"/>
</g>
</svg>
