<svg width="48" height="48" viewBox="0 0 48 48" fill="none" xmlns="http://www.w3.org/2000/svg">
<circle cx="24" cy="24" r="24" fill="#F6F8FD"/>
<path d="M23.8403 17.175C23.8549 17.1225 23.8777 17.0783 23.906 17.0473C23.9342 17.0164 23.9669 17 24.0003 17C24.0337 17 24.0663 17.0164 24.0946 17.0473C24.1229 17.0783 24.1457 17.1225 24.1603 17.175L24.7943 19.4238C24.807 19.4693 24.8258 19.5087 24.8492 19.5386C24.8725 19.5684 24.8997 19.5879 24.9283 19.5953L26.3483 19.9558C26.4933 19.9925 26.5523 20.3058 26.4463 20.4861L25.4203 22.2378C25.3996 22.2732 25.3841 22.3169 25.3752 22.365C25.3664 22.4132 25.3643 22.4645 25.3693 22.5143L25.6113 24.9889C25.6167 25.046 25.613 25.1047 25.6004 25.1583C25.5878 25.2119 25.567 25.2583 25.5402 25.2923C25.5134 25.3262 25.4817 25.3465 25.4487 25.3507C25.4157 25.3549 25.3826 25.343 25.3533 25.3161L24.0833 24.1471C24.0578 24.1238 24.0295 24.1116 24.0008 24.1116C23.9721 24.1116 23.9438 24.1238 23.9183 24.1471L22.6483 25.3161C22.619 25.3425 22.5861 25.3541 22.5532 25.3496C22.5204 25.3452 22.4889 25.3248 22.4622 25.2909C22.4356 25.257 22.4149 25.2108 22.4023 25.1575C22.3898 25.1041 22.386 25.0458 22.3913 24.9889L22.6333 22.5143C22.6384 22.4646 22.6365 22.4135 22.6278 22.3653C22.6191 22.3171 22.6038 22.2734 22.5833 22.2378L21.5533 20.4861C21.5297 20.4455 21.513 20.3943 21.5051 20.3381C21.4973 20.2819 21.4985 20.223 21.5086 20.1679C21.5188 20.1129 21.5375 20.0639 21.5627 20.0264C21.5879 19.9889 21.6186 19.9645 21.6513 19.9558L23.0713 19.5953C23.0999 19.5879 23.1271 19.5684 23.1504 19.5386C23.1738 19.5087 23.1926 19.4693 23.2053 19.4238L23.8403 17.175Z" fill="#3C8DBC"/>
<path d="M18 13.5001C18 12.5718 18.2107 11.6815 18.5858 11.0251C18.9609 10.3688 19.4696 10 20 10H28C28.5304 10 29.0391 10.3688 29.4142 11.0251C29.7893 11.6815 30 12.5718 30 13.5001V37.1254C30 37.2837 29.9754 37.439 29.9289 37.5748C29.8824 37.7105 29.8157 37.8217 29.736 37.8964C29.6563 37.9711 29.5664 38.0066 29.4761 37.999C29.3858 37.9914 29.2983 37.9411 29.223 37.8535L24 32.9271L18.777 37.8535C18.7017 37.9411 18.6142 37.9914 18.5239 37.999C18.4336 38.0066 18.3437 37.9711 18.264 37.8964C18.1843 37.8217 18.1176 37.7105 18.0711 37.5748C18.0246 37.439 18 37.2837 18 37.1254V13.5001ZM20 11.75C19.7348 11.75 19.4804 11.9344 19.2929 12.2626C19.1054 12.5908 19 13.0359 19 13.5001V35.4909L23.723 31.1473C23.8051 31.0518 23.9014 31.0008 24 31.0008C24.0986 31.0008 24.1949 31.0518 24.277 31.1473L29 35.4909V13.5001C29 13.0359 28.8946 12.5908 28.7071 12.2626C28.5196 11.9344 28.2652 11.75 28 11.75H20Z" fill="#3C8DBC"/>
</svg>
