<svg width="24" height="24" viewBox="0 0 24 24" fill="none" xmlns="http://www.w3.org/2000/svg">
<path d="M7.35639 3.35154C8.17476 2.73176 9.17382 2.39748 10.2004 2.39994C10.5549 2.39199 10.9057 2.4736 11.2204 2.63721C11.535 2.80081 11.8033 3.04114 12.0004 3.33594C12.1975 3.04114 12.4658 2.80081 12.7804 2.63721C13.095 2.4736 13.4459 2.39199 13.8004 2.39994C14.827 2.39748 15.826 2.73176 16.6444 3.35154C17.2744 3.84114 17.7604 4.51914 17.932 5.33874C18.3256 5.36874 18.6856 5.53194 18.988 5.77794C19.4464 6.14994 19.78 6.70794 19.99 7.29834C20.3188 8.21634 20.4076 9.38634 20.0668 10.3823C20.1532 10.4231 20.2384 10.4711 20.3212 10.5263C20.6512 10.7459 20.902 11.0603 21.0868 11.4311C21.4504 12.1571 21.6004 13.1699 21.6004 14.3999C21.6004 15.7691 21.0784 16.6883 20.416 17.2559C20.0497 17.57 19.6174 17.7976 19.1512 17.9219C19.0312 18.5915 18.6952 19.3667 18.1684 20.0243C17.4844 20.8823 16.4236 21.5999 15.0004 21.5999C13.8724 21.5999 12.9748 20.9759 12.3916 20.3639C12.2522 20.2178 12.1215 20.0636 12.0004 19.9019C11.8793 20.0636 11.7486 20.2178 11.6092 20.3639C11.026 20.9759 10.1296 21.5999 9.00039 21.5999C7.57719 21.5999 6.51759 20.8823 5.83239 20.0243C5.3401 19.413 5.00292 18.6917 4.84959 17.9219C4.38337 17.7976 3.95109 17.57 3.58479 17.2559C2.92239 16.6883 2.40039 15.7679 2.40039 14.3999C2.40039 13.1699 2.55159 12.1559 2.91399 11.4311C3.08575 11.0675 3.34969 10.7552 3.67959 10.5251C3.76064 10.4715 3.84569 10.4242 3.93399 10.3835C3.59319 9.38514 3.68199 8.21634 4.01079 7.29834C4.22079 6.70794 4.55439 6.14994 5.01279 5.77794C5.31519 5.53194 5.67519 5.36994 6.06879 5.33874C6.24159 4.51914 6.72759 3.84114 7.35759 3.35154H7.35639ZM11.4004 5.39994V5.38794L11.398 5.32794C11.3803 5.01511 11.3181 4.7064 11.2132 4.41114C11.1385 4.18826 11.0113 3.98659 10.8424 3.82314C10.6651 3.6688 10.4352 3.58884 10.2004 3.59994C9.44072 3.59734 8.70092 3.84253 8.09319 4.29834C7.53639 4.73154 7.20039 5.31834 7.20039 5.99994C7.20032 6.09496 7.17768 6.18861 7.13434 6.27317C7.091 6.35773 7.02819 6.43079 6.95109 6.48632C6.87399 6.54186 6.7848 6.5783 6.69087 6.59263C6.59694 6.60696 6.50094 6.59877 6.41079 6.56874C6.18519 6.49434 5.98359 6.53634 5.76879 6.70914C5.53359 6.90114 5.30439 7.24194 5.13999 7.70154C4.80519 8.63994 4.83999 9.77634 5.29959 10.4675C5.36523 10.566 5.4003 10.6816 5.40039 10.7999H6.30039C7.01648 10.7999 7.70323 11.0844 8.20958 11.5908C8.71593 12.0971 9.00039 12.7839 9.00039 13.4999V13.9019C9.40072 14.0435 9.73812 14.322 9.95297 14.6882C10.1678 15.0545 10.2463 15.4849 10.1745 15.9034C10.1027 16.3219 9.88523 16.7015 9.56059 16.9752C9.23595 17.2489 8.825 17.399 8.40039 17.399C7.97578 17.399 7.56484 17.2489 7.2402 16.9752C6.91555 16.7015 6.69812 16.3219 6.62631 15.9034C6.55451 15.4849 6.63297 15.0545 6.84781 14.6882C7.06266 14.322 7.40006 14.0435 7.80039 13.9019V13.4999C7.80039 12.6719 7.12839 11.9999 6.30039 11.9999H4.20039C4.12866 11.9998 4.05753 11.9868 3.99039 11.9615L3.98679 11.9687C3.74919 12.4427 3.60039 13.2299 3.60039 14.3999C3.60039 15.4307 3.97839 16.0115 4.36599 16.3439C4.78239 16.7015 5.24439 16.7999 5.40039 16.7999C5.55952 16.7999 5.71213 16.8632 5.82465 16.9757C5.93718 17.0882 6.00039 17.2408 6.00039 17.3999C6.00039 17.8415 6.24039 18.6131 6.76839 19.2755C7.28319 19.9175 8.02359 20.3999 9.00039 20.3999C9.67239 20.3999 10.2748 20.0243 10.7404 19.5359C10.9696 19.2959 11.1484 19.0475 11.2648 18.8435C11.3178 18.7531 11.3631 18.6583 11.4004 18.5603V8.99994H10.0984C9.95685 9.40027 9.67835 9.73768 9.3121 9.95252C8.94586 10.1674 8.51545 10.2458 8.09695 10.174C7.67845 10.1022 7.29881 9.88478 7.02513 9.56014C6.75144 9.2355 6.60133 8.82456 6.60133 8.39994C6.60133 7.97533 6.75144 7.56439 7.02513 7.23975C7.29881 6.91511 7.67845 6.69767 8.09695 6.62587C8.51545 6.55406 8.94586 6.63252 9.3121 6.84737C9.67835 7.06221 9.95685 7.39962 10.0984 7.79994H11.4004V5.39994ZM12.6004 17.3987V18.5591C12.6377 18.6571 12.683 18.7519 12.736 18.8423C12.8536 19.0463 13.0312 19.2947 13.2592 19.5347C13.726 20.0231 14.3296 20.3987 15.0004 20.3987C15.9772 20.3987 16.7176 19.9163 17.2324 19.2743C17.7604 18.6119 18.0004 17.8403 18.0004 17.3987C18.0004 17.2396 18.0636 17.087 18.1761 16.9745C18.2886 16.862 18.4413 16.7987 18.6004 16.7987C18.7564 16.7987 19.2184 16.7003 19.6348 16.3427C20.0224 16.0103 20.4004 15.4295 20.4004 14.3987C20.4004 13.2287 20.2504 12.4427 20.014 11.9675C19.9349 11.7906 19.8108 11.6375 19.654 11.5235C19.5189 11.4372 19.3606 11.3941 19.2004 11.3999C19.0919 11.3999 18.9854 11.3704 18.8923 11.3146C18.7992 11.2588 18.723 11.1788 18.6717 11.0831C18.6205 10.9875 18.5962 10.8797 18.6014 10.7713C18.6066 10.6629 18.6411 10.5579 18.7012 10.4675C19.162 9.77634 19.1956 8.63994 18.8608 7.70154C18.6964 7.24194 18.4672 6.89994 18.232 6.70914C18.0172 6.53634 17.8156 6.49314 17.59 6.56874C17.4998 6.59877 17.4038 6.60696 17.3099 6.59263C17.216 6.5783 17.1268 6.54186 17.0497 6.48632C16.9726 6.43079 16.9098 6.35773 16.8664 6.27317C16.8231 6.18861 16.8005 6.09496 16.8004 5.99994C16.8004 5.31834 16.4644 4.73154 15.9064 4.29834C15.299 3.84278 14.5596 3.5976 13.8004 3.59994C13.5656 3.58884 13.3356 3.6688 13.1584 3.82314C12.9889 3.9864 12.8613 4.1881 12.7864 4.41114C12.6721 4.72459 12.6093 5.05445 12.6004 5.38794V16.1999H13.5004C14.3284 16.1999 15.0004 15.5279 15.0004 14.6999V12.4979C14.6001 12.3564 14.2627 12.0779 14.0478 11.7117C13.833 11.3454 13.7545 10.915 13.8263 10.4965C13.8981 10.078 14.1156 9.69837 14.4402 9.42468C14.7648 9.151 15.1758 9.00089 15.6004 9.00089C16.025 9.00089 16.4359 9.151 16.7606 9.42468C17.0852 9.69837 17.3027 10.078 17.3745 10.4965C17.4463 10.915 17.3678 11.3454 17.153 11.7117C16.9381 12.0779 16.6007 12.3564 16.2004 12.4979V14.6999C16.2004 15.416 15.9159 16.1028 15.4096 16.6091C14.9032 17.1155 14.2165 17.3999 13.5004 17.3999H12.6004V17.3987ZM7.80039 8.39994C7.80039 8.55907 7.86361 8.71169 7.97613 8.82421C8.08865 8.93673 8.24126 8.99994 8.40039 8.99994C8.55952 8.99994 8.71213 8.93673 8.82466 8.82421C8.93718 8.71169 9.00039 8.55907 9.00039 8.39994C9.00039 8.24081 8.93718 8.0882 8.82466 7.97568C8.71213 7.86316 8.55952 7.79994 8.40039 7.79994C8.24126 7.79994 8.08865 7.86316 7.97613 7.97568C7.86361 8.0882 7.80039 8.24081 7.80039 8.39994ZM15.6004 11.3999C15.7595 11.3999 15.9121 11.3367 16.0247 11.2242C16.1372 11.1117 16.2004 10.9591 16.2004 10.7999C16.2004 10.6408 16.1372 10.4882 16.0247 10.3757C15.9121 10.2632 15.7595 10.1999 15.6004 10.1999C15.4413 10.1999 15.2886 10.2632 15.1761 10.3757C15.0636 10.4882 15.0004 10.6408 15.0004 10.7999C15.0004 10.9591 15.0636 11.1117 15.1761 11.2242C15.2886 11.3367 15.4413 11.3999 15.6004 11.3999ZM8.40039 14.9999C8.24126 14.9999 8.08865 15.0632 7.97613 15.1757C7.86361 15.2882 7.80039 15.4408 7.80039 15.5999C7.80039 15.7591 7.86361 15.9117 7.97613 16.0242C8.08865 16.1367 8.24126 16.1999 8.40039 16.1999C8.55952 16.1999 8.71213 16.1367 8.82466 16.0242C8.93718 15.9117 9.00039 15.7591 9.00039 15.5999C9.00039 15.4408 8.93718 15.2882 8.82466 15.1757C8.71213 15.0632 8.55952 14.9999 8.40039 14.9999Z" fill="#3C8DBC"/>
</svg>
