<svg width="121" height="46" viewBox="0 0 121 46" fill="none" xmlns="http://www.w3.org/2000/svg">
<g id="Group 48095707">
<g id="Bar 7">
<rect id="Rectangle 17" x="110.219" y="46" width="45.9999" height="10.7822" rx="5.39108" transform="rotate(-90 110.219 46)" fill="#E9EDF7"/>
<rect id="Rectangle 18" x="110.219" y="46" width="10.9692" height="10.7822" rx="5.39108" transform="rotate(-90 110.219 46)" fill="#12B3D7"/>
</g>
<g id="Bar 6">
<rect id="Rectangle 17_2" x="82.6641" y="46" width="45.9999" height="10.782" rx="5.39102" transform="rotate(-90 82.6641 46)" fill="#E9EDF7"/>
<rect id="Rectangle 18_2" x="82.6641" y="46" width="41.7537" height="10.7822" rx="5.39108" transform="rotate(-90 82.6641 46)" fill="#12B3D7"/>
</g>
<g id="Bar 5">
<rect id="Rectangle 17_3" x="55.1074" y="46" width="45.9999" height="10.7822" rx="5.39108" transform="rotate(-90 55.1074 46)" fill="#E9EDF7"/>
<rect id="Rectangle 18_3" x="55.1074" y="46" width="31.8461" height="10.7822" rx="5.39108" transform="rotate(-90 55.1074 46)" fill="#12B3D7"/>
</g>
<g id="Bar 4">
<rect id="Rectangle 17_4" x="27.5566" y="46" width="45.9999" height="10.7822" rx="5.39108" transform="rotate(-90 27.5566 46)" fill="#E9EDF7"/>
<rect id="Rectangle 18_4" x="27.5566" y="46" width="23.7076" height="10.7822" rx="5.39108" transform="rotate(-90 27.5566 46)" fill="#12B3D7"/>
</g>
<g id="Bar 3">
<rect id="Rectangle 17_5" y="46" width="45.9999" height="10.7822" rx="5.39108" transform="rotate(-90 0 46)" fill="#E9EDF7"/>
<rect id="Rectangle 18_5" y="46" width="37.8615" height="10.7822" rx="5.39108" transform="rotate(-90 0 46)" fill="#12B3D7"/>
</g>
</g>
</svg>
