<svg width="24" height="24" viewBox="0 0 24 24" fill="none" xmlns="http://www.w3.org/2000/svg">
<path d="M12 1.54688C10.8281 1.54688 9.76406 1.64203 9.01875 1.78828C8.72812 1.84594 8.50312 1.9125 8.32969 1.97625C8.50312 2.04 8.72812 2.10656 9.01875 2.16422C9.76406 2.31047 10.8281 2.40562 12 2.40562C13.1719 2.40562 14.2359 2.31047 14.9813 2.16422C15.2719 2.10656 15.4969 2.04 15.6703 1.97625C15.4969 1.9125 15.2719 1.84594 14.9813 1.78828C14.2359 1.64203 13.1719 1.54688 12 1.54688ZM7.275 1.79578C6.37969 2.21297 5.89687 3.01547 6.01875 3.81516C6.1125 4.39266 6.52969 4.91719 7.19062 5.18906C7.57031 5.34844 8.02969 5.43281 8.56875 5.42813C9.19219 6.58594 10.0359 7.54219 10.9406 7.9875V10.0453C10.1437 10.5281 9.61406 11.5312 9.09375 12.5625C10.9125 13.0266 13.0922 13.0031 14.9016 12.5578C14.3859 11.5266 13.8516 10.5281 13.0594 10.0453V7.9875C13.9641 7.54219 14.8078 6.58594 15.4313 5.42813C15.9703 5.43281 16.4297 5.34844 16.8094 5.18906C17.4703 4.91719 17.8875 4.39266 17.9813 3.81516C18.1031 3.01547 17.6203 2.21297 16.725 1.79578C16.7437 1.85203 16.7531 1.91203 16.7531 1.97625C16.7531 2.18016 16.6453 2.34703 16.5328 2.45203C16.425 2.55703 16.3031 2.62687 16.1672 2.69016C15.8953 2.81672 15.5531 2.91141 15.1406 2.99203C14.3203 3.15422 13.2188 3.24937 12 3.24937C10.7812 3.24937 9.67969 3.15422 8.85938 2.99203C8.44688 2.91141 8.10469 2.81672 7.83281 2.69016C7.69688 2.62687 7.575 2.55703 7.46719 2.45203C7.35469 2.34703 7.24688 2.18016 7.24688 1.97625C7.24688 1.91203 7.25625 1.85203 7.275 1.79578ZM7.58438 2.56031C7.69219 3.2325 7.88906 3.91547 8.16094 4.56375C7.89844 4.53797 7.6875 4.48359 7.51406 4.41188C7.07344 4.22906 6.89531 3.96047 6.85312 3.68484C6.79688 3.31313 7.00781 2.83406 7.58438 2.56031ZM16.4156 2.56031C16.9922 2.83406 17.2031 3.31313 17.1469 3.68484C17.1047 3.96047 16.9266 4.22906 16.4859 4.41188C16.3125 4.48359 16.1016 4.53797 15.8391 4.56375C16.1109 3.91547 16.3078 3.2325 16.4156 2.56031ZM19.7297 12.8531C19.2516 12.8625 18.7875 13.0969 18.3844 13.5187C17.9344 14.0016 17.5875 14.7281 17.4984 15.5672C17.4094 16.4062 17.5875 17.1891 17.925 17.7562C18.2672 18.3281 18.75 18.675 19.2984 18.7313C19.8516 18.7922 20.3953 18.5578 20.85 18.075C21.3047 17.5922 21.6469 16.8656 21.7406 16.0266C21.8297 15.1875 21.6516 14.4047 21.3141 13.8375C20.9672 13.2656 20.4891 12.9187 19.9359 12.8625C19.8656 12.8531 19.8 12.8531 19.7297 12.8531ZM4.27031 12.8531C4.2 12.8531 4.12969 12.8531 4.06406 12.8625C3.51094 12.9234 3.03281 13.275 2.69063 13.8375C2.34844 14.4094 2.17031 15.1922 2.26406 16.0312C2.35312 16.8703 2.69531 17.5969 3.15 18.0797C3.60469 18.5578 4.14844 18.7969 4.70156 18.7359C5.25469 18.675 5.73281 18.3281 6.075 17.7609C6.41719 17.1891 6.59531 16.4062 6.50156 15.5672C6.4125 14.7281 6.07031 14.0016 5.61094 13.5187C5.21719 13.1016 4.74844 12.8672 4.27031 12.8531ZM14.4844 13.5141C13.9781 13.6125 13.4578 13.6828 12.9281 13.7203C13.5609 15.7734 14.6813 17.6344 15.9188 19.4437C16.1813 19.0594 16.4719 18.7547 16.7906 18.5109C16.9313 18.4031 17.0766 18.3094 17.2219 18.2297L17.2266 18.225C17.2172 18.2109 17.2125 18.2016 17.2031 18.1875C17.0203 17.8828 16.8797 17.5406 16.7812 17.1703C15.9422 16.1344 15.0984 15.0328 14.4844 13.5141ZM9.51094 13.5234C8.89687 15.0328 8.05781 16.1344 7.22344 17.1656C7.125 17.5359 6.97969 17.8828 6.79688 18.1922C6.79219 18.2016 6.78281 18.2156 6.77344 18.225L6.77813 18.2297C6.92344 18.3094 7.06875 18.4031 7.20938 18.5109C7.52813 18.7547 7.81875 19.0594 8.08125 19.4437C9.31875 17.6391 10.4344 15.7781 11.0719 13.725C10.5422 13.6875 10.0172 13.6219 9.51094 13.5234ZM21.2625 18.8484C20.6859 19.3594 19.9688 19.6547 19.2094 19.5703C18.6609 19.5141 18.1688 19.2656 17.7703 18.8953C17.6063 18.975 17.4516 19.0688 17.3063 19.1813C16.5938 19.725 15.9703 21.1406 15.5203 23.2031H22.8281V20.4C22.725 20.2688 22.4062 19.8609 21.9234 19.3969C21.7172 19.1953 21.4875 19.0078 21.2625 18.8484ZM2.7375 18.8531C2.5125 19.0078 2.28281 19.1953 2.07656 19.3969C1.59375 19.8609 1.275 20.2688 1.17188 20.4V23.2031H8.47969C8.02969 21.1406 7.40625 19.725 6.69375 19.1813C6.54844 19.0688 6.39375 18.975 6.22969 18.8953C5.83125 19.2656 5.34375 19.5141 4.79062 19.575C4.03594 19.6594 3.30938 19.3641 2.7375 18.8531Z" fill="#3C8DBC"/>
</svg>
