<svg width="735" height="700" viewBox="0 0 735 700" fill="none" xmlns="http://www.w3.org/2000/svg">
<path d="M108.549 78.6104C44.8591 143.511 5.32385 232.182 4.43652 330.026H231.296C232.183 294.814 246.38 262.857 268.958 238.988L108.549 78.6104Z" fill="white" fill-opacity="0.05"/>
<path d="M371.789 697.534C469.69 696.647 558.225 657.095 623.098 593.378L462.69 432.901C438.929 455.587 406.986 469.692 371.69 470.579V697.534H371.789Z" fill="white" fill-opacity="0.05"/>
<path d="M462.69 234.155L598.943 97.8441C540.282 40.2423 460.225 4.53711 371.789 3.64941V196.477C406.986 197.365 438.929 211.47 462.69 234.155Z" fill="white" fill-opacity="0.05"/>
<path fill-rule="evenodd" clip-rule="evenodd" d="M364.789 35.8037V68.1554C294.516 69.1373 230.789 97.3899 183.821 142.794C183.608 143 183.396 143.206 183.183 143.413L160.31 120.53C213.155 68.8458 285.226 36.6914 364.789 35.8037ZM183.183 143.413C183.183 143.413 183.183 143.413 183.183 143.413L273.887 234.155C297.648 211.47 329.591 197.365 364.887 196.478V68.1557C294.516 69.0394 230.789 97.3892 183.821 142.794C183.608 143 183.396 143.206 183.183 143.413Z" fill="white" fill-opacity="0.05"/>
<path fill-rule="evenodd" clip-rule="evenodd" d="M627.93 78.6113C691.62 143.512 731.155 232.085 732.042 330.027V330.126H602.69C602.69 330.093 602.689 330.06 602.689 330.027H505.282C504.394 294.815 490.197 262.858 467.62 238.989L536.535 170.044C536.535 170.044 536.535 170.044 536.535 170.044L627.93 78.6113Z" fill="white" fill-opacity="0.05"/>
<path fill-rule="evenodd" clip-rule="evenodd" d="M204.972 501.846L273.887 432.901C297.648 455.488 329.591 469.692 364.789 470.678V568.128C364.772 568.127 364.756 568.127 364.74 568.127C302.681 567.129 246.432 542.106 205.041 501.913C246.432 542.204 302.681 567.227 364.74 568.127C364.756 568.127 364.772 568.127 364.789 568.128L364.789 663.407C276.352 662.421 196.197 626.716 137.535 569.212L204.972 501.846L204.972 501.846Z" fill="white" fill-opacity="0.05"/>
<path fill-rule="evenodd" clip-rule="evenodd" d="M108.549 588.446C44.8591 523.546 5.32385 434.973 4.43652 337.03H69.3096H69.3098H231.296C232.183 372.242 246.281 404.199 268.859 428.069L154.394 542.582L154.394 542.582L108.549 588.446Z" fill="white" fill-opacity="0.05"/>
<path fill-rule="evenodd" clip-rule="evenodd" d="M467.62 428.069C490.197 404.199 504.394 372.242 505.282 337.03H667.169C666.282 417.022 634.042 489.419 582.084 542.582L467.62 428.069ZM667.268 337.03H698.028C697.141 425.504 661.352 505.594 603.972 564.38L582.183 542.582C634.042 489.419 666.38 417.022 667.268 337.03Z" fill="white" fill-opacity="0.05"/>
<path d="M407.479 113.822V145.878C412.605 144.793 419.605 141.735 427.394 137.692V113.822C427.394 113.822 407.479 113.822 407.479 113.822Z" fill="#1275C7" fill-opacity="0.05"/>
<path d="M407.479 166.098V169.254H427.394V160.87C420.591 163.336 413.788 165.21 407.479 166.098Z" fill="#1275C7" fill-opacity="0.05"/>
<path d="M435.183 158.01V169.254H455.099V148.936C448.887 151.993 442.085 155.248 435.183 158.01Z" fill="#1275C7" fill-opacity="0.05"/>
<path d="M462.789 169.254H482.704V133.253C482.704 133.253 474.521 138.48 462.789 144.892V169.254Z" fill="#1275C7" fill-opacity="0.05"/>
<path d="M435.183 96.8574V133.549C441.887 129.801 448.69 125.757 455.099 121.713V96.8574H435.183Z" fill="#1275C7" fill-opacity="0.05"/>
<path d="M482.704 78.4131H462.789V116.781C472.155 110.666 479.648 105.636 482.704 103.565V78.4131Z" fill="#1275C7" fill-opacity="0.05"/>
<path d="M488.619 96.5615L492.169 102.48C492.169 102.48 460.619 122.897 453.324 127.434C446.028 132.069 424.436 146.273 409.943 149.429C395.45 152.684 394.07 148.443 394.07 143.905C394.07 139.368 403.634 129.9 403.634 129.9V126.053C403.634 126.053 397.422 132.365 392.986 138.283C391.605 140.157 390.422 142.031 389.634 143.61C386.873 149.33 385.591 155.544 388.352 158.602C391.31 161.758 394.76 163.336 407.281 161.758C420 160.18 438.929 152.388 449.972 146.667C461.112 140.946 500.746 117.077 500.746 117.077L504.69 123.587L514.155 99.0274L488.619 96.5615Z" fill="#1275C7" fill-opacity="0.05"/>
<path fill-rule="evenodd" clip-rule="evenodd" d="M442.479 560.927C446.915 560.039 451.451 560.138 455.789 561.223L460.028 551.557L469.099 555.601L464.859 565.267C468.507 567.732 471.662 570.987 474.028 574.933L483.887 571.086L487.437 580.456L477.577 584.303C478.465 588.84 478.366 593.377 477.282 597.717L486.944 601.958L482.901 611.131L473.239 606.791C470.775 610.539 467.521 613.696 463.577 616.063L467.324 625.926L458.056 629.576L454.31 619.712C449.775 620.6 445.239 620.501 441 619.416L436.76 629.082L427.69 625.038L431.93 615.372C428.282 612.907 425.127 609.652 422.76 605.706L412.901 609.553L409.352 600.183L419.211 596.336C418.324 591.799 418.422 587.262 419.507 582.922L409.845 578.681L413.887 569.508L423.549 573.848C426.014 570.1 429.268 566.943 433.211 564.576L429.366 554.713L438.634 551.063L442.479 560.927ZM443.859 578.582C450.268 576.116 457.563 579.371 460.127 585.881C462.591 592.391 459.437 599.69 452.93 602.254C446.521 604.819 439.225 601.564 436.76 595.054C434.197 588.445 437.451 581.147 443.859 578.582Z" fill="#1275C7" fill-opacity="0.05"/>
<path fill-rule="evenodd" clip-rule="evenodd" d="M501.535 536.071C504.591 535.677 507.549 535.973 510.31 536.86L513.465 530.548L519.38 533.605L516.225 539.819C518.493 541.595 520.563 543.863 521.944 546.625L528.648 544.455L530.62 550.768L523.915 552.938C524.408 555.995 524.113 559.053 523.225 561.815L529.437 565.069L526.38 570.987L520.169 567.733C518.394 570.1 516.127 572.072 513.465 573.453L515.634 580.16L509.324 582.232L507.155 575.525C504.099 575.919 501.141 575.623 498.38 574.736L495.127 581.048L489.211 577.99L492.465 571.777C490.099 570.001 488.127 567.733 486.746 564.971L480.141 567.141L478.169 560.828L484.873 558.658C484.38 555.601 484.676 552.543 485.563 549.781L479.352 546.526L482.408 540.608L488.62 543.863C490.394 541.496 492.662 539.523 495.324 538.143L493.253 531.436L499.563 529.364L501.535 536.071ZM501.831 547.809C506.268 546.428 510.901 548.795 512.282 553.234C513.662 557.672 511.296 562.406 506.859 563.787C502.422 565.168 497.789 562.801 496.408 558.362C495.028 554.023 497.394 549.288 501.831 547.809Z" fill="#1275C7" fill-opacity="0.05"/>
<path fill-rule="evenodd" clip-rule="evenodd" d="M454.112 548.696C454.112 548.696 464.662 527.293 466.239 526.997C469.296 526.307 475.605 530.647 478.267 531.731C478.267 531.731 477.577 521.572 468.014 518.12C458.352 514.668 449.774 523.249 447.803 523.545C445.831 523.939 439.422 526.208 433.803 524.926C428.183 523.644 403.831 519.698 400.479 521.572C397.225 523.446 396.831 528.772 400.38 530.745C403.831 532.619 424.831 533.803 429.366 534.69C433.901 535.48 440.31 536.565 445.141 540.115C449.873 543.666 454.112 548.696 454.112 548.696ZM459.436 527.49C457.366 525.814 454.211 526.8 452.338 529.562C450.465 532.323 450.662 535.874 452.732 537.551C454.803 539.228 457.958 538.241 459.732 535.48C461.605 532.619 461.507 529.167 459.436 527.49ZM403.239 523.644C404.521 523.644 405.507 524.63 405.507 525.912C405.507 527.194 404.521 528.181 403.239 528.181C401.958 528.181 400.972 527.194 400.972 525.912C400.972 524.63 402.056 523.644 403.239 523.644Z" fill="#1275C7" fill-opacity="0.05"/>
<path fill-rule="evenodd" clip-rule="evenodd" d="M460.619 538.537C460.619 538.537 471.07 544.061 471.366 544.455C471.662 544.85 468.31 547.217 465.056 547.809C461.803 548.4 456.577 546.724 456.577 546.724L460.619 538.537Z" fill="#1275C7" fill-opacity="0.05"/>
<path fill-rule="evenodd" clip-rule="evenodd" d="M458.746 528.773C457.366 527.392 455 527.885 453.521 529.956C452.042 532.028 451.943 534.789 453.324 536.17C454.704 537.551 457.07 537.058 458.549 534.987C460.126 532.915 460.225 530.154 458.746 528.773Z" fill="#1275C7" fill-opacity="0.05"/>
<path fill-rule="evenodd" clip-rule="evenodd" d="M177.268 406.369C170.761 405.087 164.549 409.23 163.169 415.739C161.887 422.249 166.028 428.66 172.535 429.943C179.042 431.225 185.352 427.082 186.634 420.573C187.916 414.063 183.775 407.652 177.268 406.369ZM176.282 411.4C172.535 410.611 168.887 413.076 168.099 416.824C167.31 420.573 169.775 424.321 173.521 425.11C177.268 425.899 180.916 423.433 181.704 419.685C182.493 415.838 180.028 412.09 176.282 411.4Z" fill="#1275C7" fill-opacity="0.05"/>
<path fill-rule="evenodd" clip-rule="evenodd" d="M187.718 392.068C188.704 392.265 189.592 391.673 189.789 390.687C189.986 389.701 189.394 388.813 188.409 388.616L185.747 388.122L166.817 384.177L165.042 383.783C164.056 383.585 163.169 384.177 162.972 385.163C162.775 386.15 163.366 387.037 164.352 387.235L165.437 387.432L161.887 396.309C161.887 396.309 159.324 396.309 155.873 396.309L157.648 387.333C157.648 387.333 157.845 385.361 155.578 384.078C153.409 382.895 152.423 383.585 152.225 384.374C152.028 385.163 152.324 385.755 152.916 386.051C153.507 386.347 154.69 386.446 154.592 387.136C154.493 387.728 153.211 394.04 152.817 396.309C145.62 396.408 136.648 396.605 135.564 397.098C133.789 397.986 133.296 402.917 133.296 402.917C133.296 402.917 140.099 401.142 144.831 405.975C149.564 410.907 147.592 416.036 147.592 416.036L159.817 418.501C159.718 411.498 163.662 404.791 170.465 402.917C177.268 401.043 183.38 404.791 185.352 407.356C187.324 409.92 187.62 411.893 188.409 412.386C189.099 412.879 190.38 412.09 190.775 411.301C191.071 410.512 190.578 409.329 189.099 406.863C187.62 404.495 186.042 402.917 186.042 402.917L185.845 391.377L187.718 392.068ZM182.394 391.87L168.69 389.01L164.352 402.227C164.352 402.227 170.859 396.309 182.493 400.747L182.394 391.87Z" fill="#1275C7" fill-opacity="0.05"/>
<path fill-rule="evenodd" clip-rule="evenodd" d="M101.549 476.794C101.549 476.794 123.535 445.527 158.042 437.439C158.042 437.439 128.564 451.642 115.057 481.627C122.057 483.106 125.803 483.501 133.296 483.205C133.296 483.205 143.057 453.714 163.958 440.004C154.296 454.897 148.183 480.542 148.183 480.542C156.169 477.977 160.803 475.413 166.916 471.27C166.817 457.659 168.296 447.993 170.662 441.384C175.395 448.881 177.169 461.999 177.169 461.999C177.169 461.999 182.493 455.883 185.057 451.149C184.859 446.908 179.24 439.806 171.845 436.847C140.296 425.11 98.7889 429.154 69.3101 440.299C71.0847 445.626 73.1551 449.176 76.1129 454.108C100.071 438.919 127.775 435.072 150.944 435.072C141.479 436.354 130.733 438.721 115.451 446.612C100.169 454.503 86.9579 466.733 86.9579 466.733C91.8875 471.172 95.141 473.539 101.549 476.794Z" fill="#1275C7" fill-opacity="0.05"/>
<path fill-rule="evenodd" clip-rule="evenodd" d="M90.3099 382.105C91.986 382.5 93.2677 384.966 93.2677 388.023C93.2677 390.292 92.479 392.363 91.3944 393.35V395.125C91.6902 394.731 92.0846 394.237 92.479 393.843C94.5494 391.772 97.2113 390.884 98.6902 391.772C99.5775 393.251 98.7888 395.914 96.6198 398.084C94.9437 399.761 92.8733 400.649 91.2959 400.451V404.002C91.5916 403.509 91.986 403.114 92.3804 402.72C94.4508 400.649 97.1128 399.761 98.5916 400.649C99.479 402.128 98.6902 404.791 96.5212 406.961C94.8452 408.638 92.7747 409.526 91.1973 409.328V413.175C91.493 412.682 91.8874 412.287 92.2818 411.893C94.3522 409.821 97.0142 408.934 98.493 409.821C99.3804 411.301 98.5916 413.964 96.4226 416.134C94.7466 417.811 92.6761 418.698 91.0987 418.501V425.997H88.8311V418.501C87.3522 418.698 85.2818 417.811 83.5071 416.134C81.4367 414.063 80.648 411.301 81.5353 409.821C83.0142 408.934 85.6761 409.723 87.7466 411.893C88.1409 412.287 88.5353 412.682 88.8311 413.175V409.328C87.3522 409.526 85.2818 408.638 83.5071 406.961C81.4367 404.89 80.648 402.128 81.5353 400.649C83.0142 399.761 85.6761 400.55 87.7466 402.72C88.1409 403.114 88.5353 403.608 88.8311 404.002V400.451C87.3522 400.649 85.2818 399.761 83.5071 398.084C81.4367 396.013 80.648 393.251 81.5353 391.772C83.0142 390.884 85.6761 391.673 87.7466 393.843C88.1409 394.237 88.5353 394.731 88.8311 395.125V393.35C87.7466 392.363 86.9578 390.391 86.9578 388.023C87.3522 385.064 88.6339 382.599 90.3099 382.105Z" fill="#1275C7" fill-opacity="0.05"/>
<path d="M98.5919 377.272H96.6201V386.741H98.5919V377.272Z" fill="#1275C7" fill-opacity="0.05"/>
<path d="M91.4933 370.368H89.5215V379.837H91.4933V370.368Z" fill="#1275C7" fill-opacity="0.05"/>
<path d="M84.4933 377.272H82.5215V386.741H84.4933V377.272Z" fill="#1275C7" fill-opacity="0.05"/>
<path fill-rule="evenodd" clip-rule="evenodd" d="M115.057 382.105C116.733 382.5 118.014 384.966 118.014 388.023C118.014 390.292 117.226 392.363 116.141 393.35V395.125C116.437 394.731 116.831 394.237 117.226 393.843C119.296 391.772 121.958 390.884 123.437 391.772C124.324 393.251 123.535 395.914 121.366 398.084C119.69 399.761 117.62 400.649 116.043 400.451V404.002C116.338 403.509 116.733 403.114 117.127 402.72C119.197 400.649 121.859 399.761 123.338 400.649C124.226 402.128 123.437 404.791 121.268 406.961C119.592 408.638 117.521 409.526 115.944 409.328V413.175C116.24 412.682 116.634 412.287 117.028 411.893C119.099 409.821 121.761 408.934 123.24 409.821C124.127 411.301 123.338 413.964 121.169 416.134C119.493 417.811 117.423 418.698 115.845 418.501V425.997H113.578V418.501C112.099 418.698 110.028 417.811 108.254 416.134C106.183 414.063 105.296 411.301 106.183 409.821C107.662 408.934 110.324 409.723 112.395 411.893C112.789 412.287 113.183 412.682 113.479 413.175V409.328C112 409.526 109.93 408.638 108.155 406.961C106.085 404.89 105.197 402.128 106.085 400.649C107.564 399.761 110.226 400.55 112.296 402.72C112.69 403.114 113.085 403.608 113.381 404.002V400.451C111.902 400.649 109.831 399.761 108.057 398.084C105.986 396.013 105.099 393.251 105.986 391.772C107.465 390.884 110.127 391.673 112.197 393.843C112.592 394.237 112.986 394.731 113.282 395.125V393.35C112.197 392.363 111.409 390.391 111.409 388.023C112.099 385.064 113.381 382.599 115.057 382.105Z" fill="#1275C7" fill-opacity="0.05"/>
<path d="M123.437 377.272H121.465V386.741H123.437V377.272Z" fill="#1275C7" fill-opacity="0.05"/>
<path d="M116.338 370.368H114.366V379.837H116.338V370.368Z" fill="#1275C7" fill-opacity="0.05"/>
<path d="M109.338 377.272H107.366V386.741H109.338V377.272Z" fill="#1275C7" fill-opacity="0.05"/>
<path fill-rule="evenodd" clip-rule="evenodd" d="M138.423 405.58C133.887 404.692 129.352 407.651 128.465 412.287C127.578 416.923 130.535 421.361 135.07 422.348C139.606 423.334 144.141 420.276 145.028 415.641C145.916 411.005 142.958 406.566 138.423 405.58ZM137.634 409.131C134.972 408.638 132.409 410.314 131.817 412.977C131.324 415.641 133 418.304 135.662 418.797C138.324 419.29 140.887 417.613 141.479 414.95C142.07 412.287 140.296 409.624 137.634 409.131Z" fill="#1275C7" fill-opacity="0.05"/>
<path d="M163.169 228.336C159.718 231.394 156.366 233.268 152.423 234.649C148.38 235.931 145.817 236.128 143.549 237.312C141.972 238.2 140.197 239.58 139.409 241.553C138.817 243.131 138.62 245.005 138.62 245.005L134.282 243.131C134.282 243.131 133.69 241.948 133.493 241.553C132.606 239.679 130.93 238.101 129.352 237.312C127.085 236.227 124.521 236.03 120.479 234.649C116.437 233.366 113.085 231.394 109.733 228.336C106.282 225.18 104.211 220.446 104.211 220.446H136.451H168.69C168.69 220.446 166.718 225.18 163.169 228.336ZM164.155 247.372C162.578 250.134 159.817 252.403 156.268 253.488C152.718 254.573 147.887 254.178 145.127 253.586C142.366 252.994 132.211 249.148 129.845 248.063C127.578 247.076 120.38 244.413 117.225 245.202C113.972 245.992 111.704 248.26 112.296 251.515C112.986 254.77 115.352 256.249 119 257.137C122.648 258.025 133.592 259.11 133.592 259.11V262.661C133.592 262.661 122.549 262.956 115.451 260.984C108.352 259.011 106.873 255.066 106.282 252.797C105.789 250.529 106.085 246.978 106.972 245.301C107.859 243.624 110.916 239.186 117.423 239.482C123.93 239.679 127.873 241.553 131.423 243.033C134.972 244.611 141.38 247.175 144.141 247.767C146.902 248.26 152.225 248.457 154.592 246.386C156.958 244.216 157.352 242.539 157.352 240.369C157.254 238.199 156.465 235.438 155.479 234.649C155.479 234.649 159.423 232.775 162.282 230.605C162.282 230.605 164.944 234.353 165.437 237.509C166.028 240.567 165.733 244.611 164.155 247.372ZM154.592 281.697H118.902C118.606 280.119 119.592 279.527 120.183 279.625C122.254 279.823 124.916 279.724 126.789 279.527C128.859 279.231 131.127 277.85 131.127 277.85C131.127 277.85 133.69 278.343 135.958 278.343C138.62 278.343 141.775 277.554 141.775 277.554C141.775 277.554 144.535 279.231 146.606 279.625C148.775 280.02 152.028 279.33 153.409 279.724C154.789 280.119 154.592 281.697 154.592 281.697ZM134.775 273.51V251.219L138.62 252.797V273.017L134.775 273.51ZM119.296 269.466C119.986 269.664 123.141 271.833 125.507 272.82C127.775 273.806 131.028 274.595 134.578 274.595C138.127 274.595 141.578 273.609 143.155 272.721C144.634 271.833 146.211 270.551 146.113 268.381C146.014 266.31 144.338 264.83 142.465 264.14C140.493 263.45 139.803 263.45 139.803 263.45L139.704 259.899C139.704 259.899 143.549 260.491 145.817 261.674C148.085 262.858 149.859 264.436 150.352 265.915C150.944 267.395 151.042 270.157 149.859 271.833C148.775 273.214 146.31 275.286 142.366 276.173C138.324 277.16 135.169 277.16 132.902 276.864C130.634 276.666 125.704 275.384 123.141 273.707C120.578 272.031 119.592 271.143 118.902 269.861C118.704 269.762 118.606 269.269 119.296 269.466ZM113.578 194.406C116.634 189.672 122.155 187.699 125.211 187.009C128.366 186.318 133.493 186.614 136.451 187.206C139.409 187.798 141.972 189.771 142.958 190.757C143.944 191.743 145.817 195.886 146.211 196.675C146.606 197.464 149.071 200.719 149.958 201.804C151.141 203.185 149.958 204.467 148.873 204.763C147.789 205.059 146.014 205.059 144.437 204.467C142.859 203.875 139.113 201.705 139.113 201.705C138.916 202.001 138.916 202.494 139.014 202.987C139.803 203.678 140.789 204.664 141.775 205.355C142.662 205.946 144.634 207.426 145.225 208.018C145.718 208.61 147.099 210.089 147 211.864C146.902 213.541 146.113 215.021 146.113 215.021C146.113 215.021 146.409 212.358 146.113 211.174C145.817 209.99 144.634 209.201 144.634 209.201C144.634 209.201 144.93 211.667 144.24 212.949C143.747 213.936 142.563 215.317 140.197 215.317C140.197 215.317 142.761 214.528 143.352 212.653C143.747 211.273 143.747 208.708 142.169 207.13C141.38 206.341 140.197 205.059 139.409 204.171C139.704 205.256 140.099 206.44 140 206.933C139.803 207.919 138.225 207.82 137.437 207.327C136.549 206.834 135.465 203.974 135.169 203.382C134.873 202.889 133.493 201.409 132.902 200.522C132.31 199.634 131.817 198.253 131.62 197.168C131.423 196.083 129.845 194.899 128.563 194.209C127.183 193.519 124.916 193.913 123.634 194.209C122.352 194.505 120.775 195.689 119.197 197.365C117.62 199.141 116.634 202.1 116.535 203.875C116.437 205.651 115.944 209.004 119 213.048C122.056 217.092 129.549 219.459 129.549 219.459L115.648 219.262C115.648 219.262 112.296 214.922 111.409 212.949C110.521 210.977 109.831 208.018 109.733 204.763C109.831 201.607 110.521 199.141 113.578 194.406ZM193.437 206.144H161.099V173.496C161.099 172.51 160.31 171.721 159.324 171.721H107.465C106.479 171.721 105.69 172.51 105.69 173.496V206.144H73.2537C72.2677 206.144 71.479 206.933 71.479 207.919V260.293C71.479 261.28 72.2677 262.069 73.2537 262.069H105.592V294.716C105.592 295.703 106.38 296.492 107.366 296.492H159.225C160.211 296.492 161 295.703 161 294.716V262.069H193.338C194.324 262.069 195.113 261.28 195.113 260.293V207.919C195.211 207.031 194.521 206.144 193.437 206.144Z" fill="#1275C7" fill-opacity="0.05"/>
<path d="M275.563 523.545C273.69 521.77 271.718 520.29 269.647 519.008V530.745L267.873 529.069L266 530.745V516.838C250.028 508.158 232.281 509.441 232.281 509.441V579.273C232.281 579.273 259.788 579.174 275.563 594.857V523.545Z" fill="#1275C7" fill-opacity="0.05"/>
<path d="M276.056 598.802C297.549 584.796 325.845 585.98 325.845 585.98V517.035H323.183L323.282 583.218C323.282 583.218 295.972 581.739 276.056 597.224C256.042 581.739 228.831 583.218 228.831 583.218L228.93 517.035H226.268V585.98C226.268 585.98 254.662 584.796 276.056 598.802Z" fill="#1275C7" fill-opacity="0.05"/>
<path d="M329.394 525.32V590.418C329.394 590.418 313.127 590.517 303.563 591.996C289.169 594.265 277.436 600.578 277.436 600.578C276.943 600.873 275.563 600.873 274.873 600.578C274.873 600.578 263.141 594.265 248.746 591.996C239.183 590.517 222.915 590.418 222.915 590.418V525.32H219.958V593.279H222.915C248.253 593.279 268.07 598.999 268.859 599.394C270.141 600.183 270.831 601.071 271.817 601.662C273.197 602.55 279.31 602.55 280.69 601.662C281.577 601.071 282.267 600.183 283.648 599.394C284.338 598.999 304.253 593.279 329.591 593.279H332.549V525.32H329.394Z" fill="#1275C7" fill-opacity="0.05"/>
<path d="M320.126 509.539C320.126 509.539 294.295 507.665 276.845 523.644V595.054C292.619 579.372 320.126 579.47 320.126 579.47V509.539Z" fill="#1275C7" fill-opacity="0.05"/>
<path fill-rule="evenodd" clip-rule="evenodd" d="M570.254 194.801C581.69 194.801 590.958 204.171 590.958 215.711C590.958 216.697 590.859 217.585 590.761 218.571L634.535 263.351C639.268 268.283 639.268 276.075 634.437 280.908C629.606 285.741 621.817 285.642 617.085 280.809L573.606 236.325C572.521 236.523 571.437 236.621 570.352 236.621C558.916 236.621 549.648 227.251 549.648 215.711C549.648 213.048 550.141 210.385 551.127 208.018L563.352 220.741C565.127 222.517 567.986 222.615 569.761 220.84L574.986 215.711C576.761 213.936 576.761 211.075 575.085 209.201L562.465 196.28C564.831 195.294 567.493 194.801 570.254 194.801ZM626.056 266.31C629.507 266.31 632.268 269.17 632.268 272.622C632.268 276.075 629.409 278.935 626.056 278.935C622.704 278.935 619.845 276.075 619.845 272.622C619.845 269.072 622.704 266.31 626.056 266.31Z" fill="#1275C7" fill-opacity="0.05"/>
<path fill-rule="evenodd" clip-rule="evenodd" d="M635.127 197.76C631.183 193.815 624.775 193.815 620.831 197.859C620.732 197.958 620.732 197.958 620.634 198.056L598.155 220.742L601.507 224.194L625.662 199.93C625.859 199.733 626.155 199.733 626.253 199.93L627.535 201.212C627.732 201.41 627.732 201.706 627.535 201.804L603.38 226.068L607.225 230.013L631.38 205.75C631.577 205.552 631.873 205.552 631.972 205.75L633.253 207.032C633.451 207.229 633.451 207.525 633.253 207.624L609.098 231.887L612.549 235.34L635.028 212.259C635.127 212.161 635.127 212.161 635.225 212.062C639.07 208.215 639.07 201.706 635.127 197.76Z" fill="#1275C7" fill-opacity="0.05"/>
<path fill-rule="evenodd" clip-rule="evenodd" d="M579.62 248.95L584.549 253.882L570.845 267.691C570.845 267.691 571.436 271.734 569.958 273.411L553.493 284.754L549.155 280.118L559.704 264.337C561.38 261.871 565.817 262.66 565.817 262.66L579.62 248.95Z" fill="#1275C7" fill-opacity="0.05"/>
<path d="M582.085 368.001C589.085 368.001 595.099 374.708 598.944 385.558C599.043 385.755 599.141 385.952 599.141 386.149C595.789 386.643 592.733 387.826 590.761 388.714L590.662 388.517C588.099 381.218 584.944 376.779 581.986 376.779C579.028 376.779 575.874 381.218 573.31 388.517C570.155 397.196 568.282 409.131 568.282 422.545C568.282 428.365 568.676 433.987 569.268 439.116C565.719 440.595 562.465 441.483 560.888 441.877C560 435.861 559.507 429.351 559.507 422.545C559.507 408.243 561.676 395.125 565.127 385.558C569.169 374.708 575.085 368.001 582.085 368.001ZM603.381 440.102C600.324 461.604 591.944 477.089 582.085 477.089C575.085 477.089 569.071 470.382 565.226 459.533C565.127 459.138 564.93 458.842 564.831 458.448C567.592 457.757 571.437 456.376 573.113 455.785C573.212 456.08 573.31 456.278 573.409 456.574C576.071 463.872 579.127 468.41 582.085 468.41C587.113 468.41 591.451 459.434 593.916 446.02C597.268 444.146 601.212 441.581 603.381 440.102Z" fill="#1275C7" fill-opacity="0.05"/>
<path d="M535.352 449.768C531.803 443.653 534.662 435.072 542.056 426.195C545.704 421.855 550.437 417.219 556.155 412.879C555.958 415.838 555.662 421.066 556.056 424.321C553.197 426.885 550.732 429.45 548.662 431.916C543.732 437.834 541.465 442.864 542.944 445.428C544.423 447.993 549.845 448.486 557.437 447.105C566.409 445.527 577.648 441.187 589.085 434.48C600.521 427.773 609.887 420.178 615.704 413.077C620.634 407.159 622.901 402.227 621.423 399.564C618.958 395.224 609.394 395.816 597.07 400.156C595.099 398.874 591.648 396.704 587.31 394.731C607.028 386.939 624.085 386.643 628.916 395.125C632.465 401.241 629.606 409.822 622.211 418.699C615.803 426.491 605.549 434.875 593.324 442.075C581 449.275 568.775 453.911 558.817 455.686C547.578 457.758 538.803 455.884 535.352 449.768Z" fill="#1275C7" fill-opacity="0.05"/>
<path d="M628.817 450.063C625.268 456.179 616.592 458.053 605.254 455.981C604.761 455.883 604.366 455.784 603.873 455.686C605.057 452.727 605.747 449.373 606.043 447.203C606.24 447.302 606.535 447.302 606.733 447.302C614.324 448.584 619.747 448.189 621.226 445.625C622.704 443.061 620.437 438.03 615.507 432.112C615.211 431.816 615.014 431.52 614.719 431.225C616.296 429.745 618.564 427.871 621.324 425.405C621.62 425.701 621.916 426.096 622.113 426.391C629.507 435.367 632.268 443.948 628.817 450.063ZM542.55 419.487C534.958 410.216 531.803 401.437 535.155 395.519C538.704 389.404 547.381 387.53 558.719 389.601C559.113 389.7 559.409 389.7 559.803 389.799C559.211 391.771 558.521 394.632 558.127 398.478C557.831 398.38 557.437 398.38 557.141 398.281C549.55 396.9 544.127 397.393 542.648 399.958C540.873 403.015 543.141 408.144 548.169 413.964C546 415.838 543.733 418.106 542.55 419.487ZM602.296 419.882C598.254 416.725 593.719 413.668 588.789 410.807C583.859 407.947 578.93 405.481 574.197 403.509C574.395 401.635 574.789 398.478 575.972 394.73C581.493 396.999 587.409 399.859 593.226 403.213C598.944 406.566 604.268 410.216 608.902 413.865C607.028 415.542 604.662 417.81 602.296 419.882Z" fill="#1275C7" fill-opacity="0.05"/>
<path fill-rule="evenodd" clip-rule="evenodd" d="M582.085 430.929C586.719 430.929 590.465 427.181 590.465 422.545C590.465 417.909 586.719 414.062 582.085 414.062C577.451 414.062 573.705 417.909 573.705 422.545C573.705 427.181 577.55 430.929 582.085 430.929Z" fill="#1275C7" fill-opacity="0.05"/>
<path fill-rule="evenodd" clip-rule="evenodd" d="M305.93 106.425C305.93 106.425 291.141 90.2494 269.451 92.0248C247.859 93.8988 233.958 113.034 232.775 125.166C231.592 137.297 232.479 147.654 247.071 164.52C261.662 181.387 294.197 191.25 307.113 182.077C320.028 172.805 313.62 164.52 310.366 160.279C307.113 156.038 308.394 149.035 312.338 142.13C316.282 135.128 314.803 126.053 313.718 122.207L290.056 143.511C290.056 143.511 291.831 153.868 277.831 156.827L277.24 157.024C277.338 157.616 277.437 158.208 277.437 158.799C277.437 163.928 273.296 168.17 268.169 168.17C263.042 168.17 258.901 164.027 258.901 158.799C258.901 154.361 261.958 150.613 266.099 149.627V149.232C266.099 149.232 266.394 136.213 280.296 134.24L305.93 106.425ZM296.366 158.306C301.493 158.306 305.634 162.449 305.634 167.676C305.634 172.904 301.493 177.047 296.366 177.047C291.24 177.047 287.099 172.805 287.099 167.676C287.099 162.548 291.24 158.306 296.366 158.306ZM251.507 123.883C256.634 123.883 260.775 128.026 260.775 133.254C260.775 138.481 256.634 142.624 251.507 142.624C246.38 142.624 242.24 138.382 242.24 133.254C242.24 128.125 246.38 123.883 251.507 123.883ZM268.662 99.8168C273.789 99.8168 277.93 103.959 277.93 109.187C277.93 114.316 273.789 118.557 268.662 118.557C263.535 118.557 259.394 114.316 259.394 109.187C259.394 104.058 263.535 99.8168 268.662 99.8168Z" fill="#1275C7" fill-opacity="0.05"/>
<path fill-rule="evenodd" clip-rule="evenodd" d="M269.845 160.674C263.93 150.12 271.916 135.818 282.564 138.186L290.254 126.547L297.549 133.846L286.113 141.638C286.113 141.638 286.902 147.654 282.662 150.515C278.423 153.375 269.845 152.685 269.845 160.674Z" fill="#1275C7" fill-opacity="0.05"/>
<path fill-rule="evenodd" clip-rule="evenodd" d="M293.113 124.475C293.113 124.475 320.324 95.4772 325.944 90.8415C331.564 86.2057 342.31 77.2301 344.873 78.7096C347.437 80.1891 337.38 93.3073 333.437 97.7458C329.493 102.086 299.817 131.38 299.817 131.38L293.113 124.475Z" fill="#1275C7" fill-opacity="0.05"/>
</svg>
