<svg width="735" height="700" viewBox="0 0 735 700" fill="none" xmlns="http://www.w3.org/2000/svg">
<path d="M108.549 78.6094C44.8591 143.51 5.32385 232.181 4.43652 330.025H231.296C232.183 294.813 246.38 262.856 268.958 238.987L108.549 78.6094Z" fill="white" fill-opacity="0.03"/>
<path d="M371.789 697.535C469.69 696.648 558.226 657.096 623.099 593.379L462.69 432.902C438.93 455.588 406.986 469.693 371.69 470.58V697.535H371.789Z" fill="white" fill-opacity="0.03"/>
<path d="M462.69 234.154L598.944 97.8432C540.282 40.2414 460.226 4.53614 371.789 3.64844V196.476C406.986 197.364 438.93 211.469 462.69 234.154Z" fill="white" fill-opacity="0.03"/>
<path fill-rule="evenodd" clip-rule="evenodd" d="M364.788 35.8047V68.1564C294.516 69.1383 230.789 97.3908 183.821 142.795C183.608 143.001 183.395 143.207 183.183 143.414L160.31 120.531C213.155 68.8468 285.225 36.6924 364.788 35.8047ZM183.183 143.414C183.183 143.414 183.183 143.414 183.183 143.414L273.887 234.156C297.647 211.471 329.591 197.366 364.887 196.479V68.1567C294.516 69.0404 230.789 97.3901 183.821 142.795C183.608 143.001 183.395 143.207 183.183 143.414Z" fill="white" fill-opacity="0.03"/>
<path fill-rule="evenodd" clip-rule="evenodd" d="M627.929 78.6094C691.619 143.51 731.155 232.083 732.042 330.025V330.124H602.69C602.689 330.091 602.689 330.058 602.688 330.025H505.281C504.394 294.813 490.197 262.856 467.619 238.987L536.535 170.042C536.535 170.042 536.535 170.042 536.535 170.042L627.929 78.6094Z" fill="white" fill-opacity="0.03"/>
<path fill-rule="evenodd" clip-rule="evenodd" d="M204.972 501.847L273.887 432.902C297.648 455.489 329.591 469.693 364.789 470.679V568.128C364.772 568.128 364.756 568.128 364.74 568.128C302.681 567.13 246.432 542.107 205.041 501.914C246.432 542.205 302.681 567.228 364.74 568.128C364.756 568.128 364.772 568.128 364.789 568.128L364.789 663.408C276.352 662.422 196.197 626.717 137.535 569.213L204.972 501.847L204.972 501.847Z" fill="white" fill-opacity="0.03"/>
<path fill-rule="evenodd" clip-rule="evenodd" d="M108.549 588.447C44.8591 523.547 5.32385 434.974 4.43652 337.031H69.3096H69.3098H231.296C232.183 372.243 246.281 404.2 268.859 428.07L154.394 542.583L154.394 542.583L108.549 588.447Z" fill="white" fill-opacity="0.03"/>
<path fill-rule="evenodd" clip-rule="evenodd" d="M467.619 428.07C490.197 404.2 504.394 372.243 505.281 337.031H667.168C666.281 417.023 634.042 489.42 582.084 542.583L467.619 428.07ZM667.267 337.031H698.028C697.14 425.505 661.352 505.595 603.971 564.381L582.183 542.583C634.042 489.42 666.38 417.023 667.267 337.031Z" fill="white" fill-opacity="0.03"/>
<path d="M407.479 113.824V145.88C412.605 144.795 419.605 141.737 427.394 137.693V113.824C427.394 113.824 407.479 113.824 407.479 113.824Z" fill="#1275C7" fill-opacity="0.03"/>
<path d="M407.479 166.099V169.255H427.394V160.871C420.591 163.337 413.788 165.211 407.479 166.099Z" fill="#1275C7" fill-opacity="0.03"/>
<path d="M435.183 158.012V169.256H455.098V148.938C448.887 151.995 442.084 155.25 435.183 158.012Z" fill="#1275C7" fill-opacity="0.03"/>
<path d="M462.788 169.255H482.704V133.254C482.704 133.254 474.52 138.481 462.788 144.893V169.255Z" fill="#1275C7" fill-opacity="0.03"/>
<path d="M435.183 96.8594V133.551C441.887 129.803 448.69 125.759 455.098 121.715V96.8594H435.183Z" fill="#1275C7" fill-opacity="0.03"/>
<path d="M482.704 78.4141H462.788V116.782C472.154 110.667 479.647 105.637 482.704 103.566V78.4141Z" fill="#1275C7" fill-opacity="0.03"/>
<path d="M488.619 96.5625L492.169 102.48C492.169 102.48 460.619 122.898 453.324 127.435C446.028 132.07 424.436 146.274 409.943 149.43C395.45 152.685 394.07 148.444 394.07 143.906C394.07 139.369 403.634 129.901 403.634 129.901V126.054C403.634 126.054 397.422 132.366 392.986 138.284C391.605 140.158 390.422 142.032 389.634 143.611C386.873 149.331 385.591 155.545 388.352 158.603C391.31 161.759 394.76 163.337 407.281 161.759C420 160.181 438.929 152.389 449.972 146.668C461.112 140.947 500.746 117.078 500.746 117.078L504.69 123.588L514.155 99.0283L488.619 96.5625Z" fill="#1275C7" fill-opacity="0.03"/>
<path fill-rule="evenodd" clip-rule="evenodd" d="M442.478 560.93C446.915 560.042 451.45 560.141 455.788 561.226L460.028 551.56L469.098 555.604L464.859 565.27C468.506 567.735 471.661 570.99 474.028 574.936L483.887 571.089L487.436 580.459L477.577 584.306C478.464 588.843 478.366 593.38 477.281 597.72L486.943 601.961L482.901 611.134L473.239 606.794C470.774 610.542 467.521 613.698 463.577 616.066L467.323 625.929L458.056 629.578L454.309 619.715C449.774 620.603 445.239 620.504 440.999 619.419L436.76 629.085L427.69 625.041L431.929 615.375C428.281 612.909 425.126 609.655 422.76 605.709L412.901 609.556L409.352 600.186L419.211 596.339C418.323 591.802 418.422 587.265 419.506 582.925L409.845 578.684L413.887 569.511L423.549 573.851C426.014 570.103 429.267 566.946 433.211 564.579L429.366 554.716L438.633 551.066L442.478 560.93ZM443.859 578.585C450.267 576.119 457.563 579.374 460.126 585.884C462.591 592.394 459.436 599.693 452.929 602.257C446.521 604.821 439.225 601.567 436.76 595.057C434.197 588.448 437.45 581.15 443.859 578.585Z" fill="#1275C7" fill-opacity="0.03"/>
<path fill-rule="evenodd" clip-rule="evenodd" d="M501.535 536.074C504.591 535.68 507.549 535.976 510.31 536.863L513.465 530.551L519.38 533.608L516.225 539.822C518.493 541.598 520.563 543.866 521.944 546.628L528.648 544.458L530.62 550.771L523.915 552.94C524.408 555.998 524.113 559.056 523.225 561.817L529.437 565.072L526.38 570.99L520.169 567.735C518.394 570.103 516.127 572.075 513.465 573.456L515.634 580.163L509.324 582.235L507.155 575.528C504.099 575.922 501.141 575.626 498.38 574.738L495.127 581.051L489.211 577.993L492.465 571.779C490.099 570.004 488.127 567.735 486.746 564.974L480.141 567.144L478.169 560.831L484.873 558.661C484.38 555.604 484.676 552.546 485.563 549.784L479.352 546.529L482.408 540.611L488.62 543.866C490.394 541.499 492.662 539.526 495.324 538.146L493.253 531.438L499.563 529.367L501.535 536.074ZM501.831 547.812C506.268 546.431 510.901 548.798 512.282 553.236C513.662 557.675 511.296 562.409 506.859 563.79C502.422 565.171 497.789 562.804 496.408 558.365C495.028 554.025 497.394 549.291 501.831 547.812Z" fill="#1275C7" fill-opacity="0.03"/>
<path fill-rule="evenodd" clip-rule="evenodd" d="M454.112 548.698C454.112 548.698 464.662 527.295 466.239 526.999C469.296 526.309 475.605 530.648 478.267 531.733C478.267 531.733 477.577 521.574 468.014 518.122C458.352 514.67 449.774 523.251 447.803 523.547C445.831 523.941 439.422 526.21 433.803 524.928C428.183 523.646 403.831 519.7 400.479 521.574C397.225 523.448 396.831 528.774 400.38 530.747C403.831 532.621 424.831 533.805 429.366 534.692C433.901 535.482 440.31 536.566 445.141 540.117C449.873 543.668 454.112 548.698 454.112 548.698ZM459.436 527.492C457.366 525.815 454.211 526.802 452.338 529.564C450.465 532.325 450.662 535.876 452.732 537.553C454.803 539.23 457.958 538.243 459.732 535.482C461.605 532.621 461.507 529.169 459.436 527.492ZM403.239 523.646C404.521 523.646 405.507 524.632 405.507 525.914C405.507 527.196 404.521 528.183 403.239 528.183C401.958 528.183 400.972 527.196 400.972 525.914C400.972 524.632 402.056 523.646 403.239 523.646Z" fill="#1275C7" fill-opacity="0.03"/>
<path fill-rule="evenodd" clip-rule="evenodd" d="M460.619 538.539C460.619 538.539 471.07 544.063 471.366 544.457C471.662 544.852 468.31 547.219 465.056 547.811C461.803 548.402 456.577 546.726 456.577 546.726L460.619 538.539Z" fill="#1275C7" fill-opacity="0.03"/>
<path fill-rule="evenodd" clip-rule="evenodd" d="M458.747 528.775C457.366 527.394 455 527.887 453.521 529.958C452.042 532.03 451.944 534.791 453.324 536.172C454.704 537.553 457.071 537.06 458.549 534.989C460.127 532.917 460.226 530.156 458.747 528.775Z" fill="#1275C7" fill-opacity="0.03"/>
<path fill-rule="evenodd" clip-rule="evenodd" d="M177.268 406.369C170.761 405.087 164.549 409.23 163.169 415.739C161.887 422.249 166.028 428.66 172.535 429.943C179.042 431.225 185.352 427.082 186.634 420.573C187.916 414.063 183.775 407.652 177.268 406.369ZM176.282 411.4C172.535 410.611 168.887 413.076 168.099 416.824C167.31 420.573 169.775 424.321 173.521 425.11C177.268 425.899 180.916 423.433 181.704 419.685C182.493 415.838 180.028 412.09 176.282 411.4Z" fill="#1275C7" fill-opacity="0.03"/>
<path fill-rule="evenodd" clip-rule="evenodd" d="M187.718 392.066C188.704 392.263 189.592 391.671 189.789 390.685C189.986 389.699 189.394 388.811 188.409 388.614L185.747 388.12L166.817 384.175L165.042 383.781C164.056 383.583 163.169 384.175 162.972 385.161C162.775 386.148 163.366 387.035 164.352 387.233L165.437 387.43L161.887 396.307C161.887 396.307 159.324 396.307 155.873 396.307L157.648 387.331C157.648 387.331 157.845 385.359 155.578 384.076C153.409 382.893 152.423 383.583 152.225 384.372C152.028 385.161 152.324 385.753 152.916 386.049C153.507 386.345 154.69 386.444 154.592 387.134C154.493 387.726 153.211 394.038 152.817 396.307C145.62 396.406 136.648 396.603 135.564 397.096C133.789 397.984 133.296 402.915 133.296 402.915C133.296 402.915 140.099 401.14 144.831 405.973C149.564 410.905 147.592 416.034 147.592 416.034L159.817 418.499C159.718 411.496 163.662 404.789 170.465 402.915C177.268 401.041 183.38 404.789 185.352 407.354C187.324 409.918 187.62 411.891 188.409 412.384C189.099 412.877 190.38 412.088 190.775 411.299C191.071 410.51 190.578 409.327 189.099 406.861C187.62 404.494 186.042 402.915 186.042 402.915L185.845 391.375L187.718 392.066ZM182.394 391.868L168.69 389.008L164.352 402.225C164.352 402.225 170.859 396.307 182.493 400.745L182.394 391.868Z" fill="#1275C7" fill-opacity="0.03"/>
<path fill-rule="evenodd" clip-rule="evenodd" d="M101.549 476.793C101.549 476.793 123.535 445.526 158.042 437.438C158.042 437.438 128.563 451.641 115.056 481.626C122.056 483.105 125.803 483.5 133.295 483.204C133.295 483.204 143.056 453.713 163.957 440.003C154.295 454.896 148.183 480.541 148.183 480.541C156.169 477.976 160.803 475.412 166.915 471.269C166.817 457.658 168.295 447.992 170.662 441.383C175.394 448.88 177.169 461.998 177.169 461.998C177.169 461.998 182.493 455.883 185.056 451.148C184.859 446.907 179.239 439.805 171.845 436.846C140.295 425.109 98.7884 429.153 69.3096 440.298C71.0842 445.625 73.1546 449.175 76.1124 454.107C100.07 438.918 127.774 435.071 150.943 435.071C141.479 436.353 130.732 438.72 115.45 446.611C100.169 454.502 86.9575 466.732 86.9575 466.732C91.887 471.171 95.1406 473.538 101.549 476.793Z" fill="#1275C7" fill-opacity="0.03"/>
<path fill-rule="evenodd" clip-rule="evenodd" d="M90.3095 382.105C91.9855 382.5 93.2672 384.966 93.2672 388.023C93.2672 390.292 92.4785 392.363 91.394 393.35V395.125C91.6897 394.731 92.0841 394.237 92.4785 393.843C94.5489 391.772 97.2109 390.884 98.6897 391.772C99.5771 393.251 98.7883 395.914 96.6193 398.084C94.9433 399.761 92.8728 400.649 91.2954 400.451V404.002C91.5911 403.509 91.9855 403.114 92.3799 402.72C94.4503 400.649 97.1123 399.761 98.5911 400.649C99.4785 402.128 98.6897 404.791 96.5207 406.961C94.8447 408.638 92.7742 409.526 91.1968 409.328V413.175C91.4926 412.682 91.8869 412.287 92.2813 411.893C94.3517 409.821 97.0137 408.934 98.4926 409.821C99.3799 411.301 98.5911 413.964 96.4221 416.134C94.7461 417.811 92.6757 418.698 91.0982 418.501V425.997H88.8306V418.501C87.3517 418.698 85.2813 417.811 83.5066 416.134C81.4362 414.063 80.6475 411.301 81.5348 409.821C83.0137 408.934 85.6757 409.723 87.7461 411.893C88.1404 412.287 88.5348 412.682 88.8306 413.175V409.328C87.3517 409.526 85.2813 408.638 83.5066 406.961C81.4362 404.89 80.6475 402.128 81.5348 400.649C83.0137 399.761 85.6757 400.55 87.7461 402.72C88.1404 403.114 88.5348 403.608 88.8306 404.002V400.451C87.3517 400.649 85.2813 399.761 83.5066 398.084C81.4362 396.013 80.6475 393.251 81.5348 391.772C83.0137 390.884 85.6757 391.673 87.7461 393.843C88.1404 394.237 88.5348 394.731 88.8306 395.125V393.35C87.7461 392.363 86.9573 390.391 86.9573 388.023C87.3517 385.064 88.6334 382.599 90.3095 382.105Z" fill="#1275C7" fill-opacity="0.03"/>
<path d="M98.591 377.273H96.6191V386.742H98.591V377.273Z" fill="#1275C7" fill-opacity="0.03"/>
<path d="M91.4923 370.367H89.5205V379.836H91.4923V370.367Z" fill="#1275C7" fill-opacity="0.03"/>
<path d="M84.4923 377.273H82.5205V386.742H84.4923V377.273Z" fill="#1275C7" fill-opacity="0.03"/>
<path fill-rule="evenodd" clip-rule="evenodd" d="M115.056 382.105C116.732 382.5 118.013 384.966 118.013 388.023C118.013 390.292 117.225 392.363 116.14 393.35V395.125C116.436 394.731 116.83 394.237 117.225 393.843C119.295 391.772 121.957 390.884 123.436 391.772C124.323 393.251 123.534 395.914 121.365 398.084C119.689 399.761 117.619 400.649 116.042 400.451V404.002C116.337 403.509 116.732 403.114 117.126 402.72C119.196 400.649 121.858 399.761 123.337 400.649C124.225 402.128 123.436 404.791 121.267 406.961C119.591 408.638 117.52 409.526 115.943 409.328V413.175C116.239 412.682 116.633 412.287 117.027 411.893C119.098 409.821 121.76 408.934 123.239 409.821C124.126 411.301 123.337 413.964 121.168 416.134C119.492 417.811 117.422 418.698 115.844 418.501V425.997H113.577V418.501C112.098 418.698 110.027 417.811 108.253 416.134C106.182 414.063 105.295 411.301 106.182 409.821C107.661 408.934 110.323 409.723 112.394 411.893C112.788 412.287 113.182 412.682 113.478 413.175V409.328C111.999 409.526 109.929 408.638 108.154 406.961C106.084 404.89 105.196 402.128 106.084 400.649C107.563 399.761 110.225 400.55 112.295 402.72C112.689 403.114 113.084 403.608 113.38 404.002V400.451C111.901 400.649 109.83 399.761 108.056 398.084C105.985 396.013 105.098 393.251 105.985 391.772C107.464 390.884 110.126 391.673 112.196 393.843C112.591 394.237 112.985 394.731 113.281 395.125V393.35C112.196 392.363 111.408 390.391 111.408 388.023C112.098 385.064 113.38 382.599 115.056 382.105Z" fill="#1275C7" fill-opacity="0.03"/>
<path d="M123.437 377.273H121.465V386.742H123.437V377.273Z" fill="#1275C7" fill-opacity="0.03"/>
<path d="M116.338 370.367H114.366V379.836H116.338V370.367Z" fill="#1275C7" fill-opacity="0.03"/>
<path d="M109.338 377.273H107.366V386.742H109.338V377.273Z" fill="#1275C7" fill-opacity="0.03"/>
<path fill-rule="evenodd" clip-rule="evenodd" d="M138.423 405.579C133.887 404.691 129.352 407.65 128.465 412.286C127.578 416.922 130.535 421.36 135.07 422.347C139.606 423.333 144.141 420.275 145.028 415.64C145.916 411.004 142.958 406.565 138.423 405.579ZM137.634 409.13C134.972 408.637 132.409 410.313 131.817 412.977C131.324 415.64 133 418.303 135.662 418.796C138.324 419.289 140.887 417.612 141.479 414.949C142.07 412.286 140.296 409.623 137.634 409.13Z" fill="#1275C7" fill-opacity="0.03"/>
<path d="M163.169 228.334C159.718 231.392 156.366 233.266 152.422 234.647C148.38 235.929 145.817 236.126 143.549 237.31C141.971 238.198 140.197 239.578 139.408 241.551C138.817 243.129 138.619 245.003 138.619 245.003L134.281 243.129C134.281 243.129 133.69 241.946 133.493 241.551C132.605 239.677 130.929 238.099 129.352 237.31C127.084 236.225 124.521 236.028 120.479 234.647C116.436 233.365 113.084 231.392 109.732 228.334C106.281 225.178 104.211 220.444 104.211 220.444H136.45H168.69C168.69 220.444 166.718 225.178 163.169 228.334ZM164.155 247.37C162.577 250.132 159.817 252.401 156.267 253.486C152.718 254.571 147.887 254.176 145.126 253.584C142.366 252.993 132.211 249.146 129.845 248.061C127.577 247.075 120.38 244.411 117.225 245.201C113.971 245.99 111.704 248.258 112.295 251.513C112.986 254.768 115.352 256.247 119 257.135C122.648 258.023 133.591 259.108 133.591 259.108V262.659C133.591 262.659 122.549 262.954 115.45 260.982C108.352 259.009 106.873 255.064 106.281 252.795C105.788 250.527 106.084 246.976 106.971 245.299C107.859 243.622 110.915 239.184 117.422 239.48C123.929 239.677 127.873 241.551 131.422 243.031C134.971 244.609 141.38 247.173 144.14 247.765C146.901 248.258 152.225 248.455 154.591 246.384C156.957 244.214 157.352 242.537 157.352 240.367C157.253 238.198 156.464 235.436 155.479 234.647C155.479 234.647 159.422 232.773 162.281 230.603C162.281 230.603 164.943 234.351 165.436 237.507C166.028 240.565 165.732 244.609 164.155 247.37ZM154.591 281.695H118.901C118.605 280.117 119.591 279.525 120.183 279.623C122.253 279.821 124.915 279.722 126.788 279.525C128.859 279.229 131.126 277.848 131.126 277.848C131.126 277.848 133.69 278.341 135.957 278.341C138.619 278.341 141.774 277.552 141.774 277.552C141.774 277.552 144.535 279.229 146.605 279.623C148.774 280.018 152.028 279.328 153.408 279.722C154.788 280.117 154.591 281.695 154.591 281.695ZM134.774 273.508V251.217L138.619 252.795V273.015L134.774 273.508ZM119.295 269.464C119.986 269.662 123.14 271.831 125.507 272.818C127.774 273.804 131.028 274.593 134.577 274.593C138.126 274.593 141.577 273.607 143.155 272.719C144.633 271.831 146.211 270.549 146.112 268.379C146.014 266.308 144.338 264.828 142.464 264.138C140.493 263.448 139.802 263.448 139.802 263.448L139.704 259.897C139.704 259.897 143.549 260.489 145.817 261.672C148.084 262.856 149.859 264.434 150.352 265.913C150.943 267.393 151.042 270.155 149.859 271.831C148.774 273.212 146.309 275.284 142.366 276.171C138.324 277.158 135.169 277.158 132.901 276.862C130.633 276.665 125.704 275.382 123.14 273.706C120.577 272.029 119.591 271.141 118.901 269.859C118.704 269.76 118.605 269.267 119.295 269.464ZM113.577 194.404C116.633 189.67 122.155 187.697 125.211 187.007C128.366 186.316 133.493 186.612 136.45 187.204C139.408 187.796 141.971 189.769 142.957 190.755C143.943 191.741 145.817 195.884 146.211 196.673C146.605 197.462 149.07 200.717 149.957 201.802C151.14 203.183 149.957 204.465 148.873 204.761C147.788 205.057 146.014 205.057 144.436 204.465C142.859 203.873 139.112 201.703 139.112 201.703C138.915 201.999 138.915 202.492 139.014 202.985C139.802 203.676 140.788 204.662 141.774 205.353C142.662 205.944 144.633 207.424 145.225 208.016C145.718 208.608 147.098 210.087 147 211.862C146.901 213.539 146.112 215.019 146.112 215.019C146.112 215.019 146.408 212.356 146.112 211.172C145.817 209.988 144.633 209.199 144.633 209.199C144.633 209.199 144.929 211.665 144.239 212.947C143.746 213.934 142.563 215.315 140.197 215.315C140.197 215.315 142.76 214.526 143.352 212.652C143.746 211.271 143.746 208.706 142.169 207.128C141.38 206.339 140.197 205.057 139.408 204.169C139.704 205.254 140.098 206.438 140 206.931C139.802 207.917 138.225 207.819 137.436 207.325C136.549 206.832 135.464 203.972 135.169 203.38C134.873 202.887 133.493 201.407 132.901 200.52C132.31 199.632 131.817 198.251 131.619 197.166C131.422 196.081 129.845 194.898 128.563 194.207C127.183 193.517 124.915 193.911 123.633 194.207C122.352 194.503 120.774 195.687 119.197 197.363C117.619 199.139 116.633 202.098 116.535 203.873C116.436 205.649 115.943 209.002 119 213.046C122.056 217.09 129.549 219.457 129.549 219.457L115.648 219.26C115.648 219.26 112.295 214.92 111.408 212.947C110.521 210.975 109.831 208.016 109.732 204.761C109.831 201.605 110.521 199.139 113.577 194.404ZM193.436 206.142H161.098V173.494C161.098 172.508 160.31 171.719 159.324 171.719H107.464C106.479 171.719 105.69 172.508 105.69 173.494V206.142H73.2532C72.2673 206.142 71.4785 206.931 71.4785 207.917V260.291C71.4785 261.278 72.2673 262.067 73.2532 262.067H105.591V294.714C105.591 295.701 106.38 296.49 107.366 296.49H159.225C160.211 296.49 161 295.701 161 294.714V262.067H193.338C194.324 262.067 195.112 261.278 195.112 260.291V207.917C195.211 207.029 194.521 206.142 193.436 206.142Z" fill="#1275C7" fill-opacity="0.03"/>
<path d="M275.564 523.546C273.691 521.771 271.719 520.291 269.648 519.009V530.746L267.874 529.07L266.001 530.746V516.839C250.029 508.159 232.282 509.442 232.282 509.442V579.274C232.282 579.274 259.789 579.175 275.564 594.858V523.546Z" fill="#1275C7" fill-opacity="0.03"/>
<path d="M276.056 598.802C297.549 584.796 325.845 585.98 325.845 585.98V517.035H323.183L323.282 583.218C323.282 583.218 295.972 581.739 276.056 597.224C256.042 581.739 228.831 583.218 228.831 583.218L228.93 517.035H226.268V585.98C226.268 585.98 254.662 584.796 276.056 598.802Z" fill="#1275C7" fill-opacity="0.03"/>
<path d="M329.395 525.32V590.418C329.395 590.418 313.127 590.517 303.564 591.996C289.169 594.265 277.437 600.578 277.437 600.578C276.944 600.873 275.564 600.873 274.873 600.578C274.873 600.578 263.141 594.265 248.747 591.996C239.183 590.517 222.916 590.418 222.916 590.418V525.32H219.958V593.279H222.916C248.254 593.279 268.071 598.999 268.859 599.394C270.141 600.183 270.831 601.071 271.817 601.662C273.197 602.55 279.31 602.55 280.69 601.662C281.578 601.071 282.268 600.183 283.648 599.394C284.338 598.999 304.254 593.279 329.592 593.279H332.55V525.32H329.395Z" fill="#1275C7" fill-opacity="0.03"/>
<path d="M320.127 509.54C320.127 509.54 294.296 507.666 276.846 523.645V595.055C292.62 579.373 320.127 579.471 320.127 579.471V509.54Z" fill="#1275C7" fill-opacity="0.03"/>
<path fill-rule="evenodd" clip-rule="evenodd" d="M570.254 194.801C581.691 194.801 590.958 204.171 590.958 215.711C590.958 216.697 590.86 217.585 590.761 218.571L634.536 263.351C639.268 268.283 639.268 276.075 634.437 280.908C629.606 285.741 621.817 285.642 617.085 280.809L573.606 236.325C572.522 236.523 571.437 236.621 570.353 236.621C558.916 236.621 549.648 227.251 549.648 215.711C549.648 213.048 550.141 210.385 551.127 208.018L563.353 220.741C565.127 222.517 567.986 222.615 569.761 220.84L574.986 215.711C576.761 213.936 576.761 211.075 575.085 209.201L562.465 196.28C564.832 195.294 567.494 194.801 570.254 194.801ZM626.057 266.31C629.508 266.31 632.268 269.17 632.268 272.622C632.268 276.075 629.409 278.935 626.057 278.935C622.705 278.935 619.846 276.075 619.846 272.622C619.846 269.072 622.705 266.31 626.057 266.31Z" fill="#1275C7" fill-opacity="0.03"/>
<path fill-rule="evenodd" clip-rule="evenodd" d="M635.127 197.759C631.183 193.814 624.775 193.814 620.831 197.858C620.733 197.957 620.733 197.957 620.634 198.055L598.155 220.741L601.507 224.193L625.662 199.929C625.859 199.732 626.155 199.732 626.254 199.929L627.536 201.211C627.733 201.409 627.733 201.705 627.536 201.803L603.381 226.067L607.226 230.012L631.381 205.749C631.578 205.551 631.874 205.551 631.972 205.749L633.254 207.031C633.451 207.228 633.451 207.524 633.254 207.623L609.099 231.886L612.55 235.339L635.028 212.258C635.127 212.16 635.127 212.16 635.226 212.061C639.071 208.214 639.071 201.705 635.127 197.759Z" fill="#1275C7" fill-opacity="0.03"/>
<path fill-rule="evenodd" clip-rule="evenodd" d="M579.62 248.949L584.55 253.881L570.845 267.69C570.845 267.69 571.437 271.734 569.958 273.41L553.493 284.753L549.155 280.117L559.705 264.336C561.381 261.87 565.817 262.659 565.817 262.659L579.62 248.949Z" fill="#1275C7" fill-opacity="0.03"/>
<path d="M582.084 368C589.084 368 595.098 374.707 598.943 385.557C599.042 385.754 599.141 385.951 599.141 386.149C595.789 386.642 592.732 387.825 590.76 388.713L590.662 388.516C588.098 381.217 584.943 376.778 581.986 376.778C579.028 376.778 575.873 381.217 573.31 388.516C570.155 397.195 568.282 409.13 568.282 422.544C568.282 428.364 568.676 433.986 569.267 439.115C565.718 440.594 562.465 441.482 560.887 441.876C560 435.86 559.507 429.35 559.507 422.544C559.507 408.242 561.676 395.124 565.127 385.557C569.169 374.707 575.084 368 582.084 368ZM603.38 440.101C600.324 461.603 591.943 477.088 582.084 477.088C575.084 477.088 569.07 470.381 565.225 459.532C565.127 459.137 564.929 458.841 564.831 458.447C567.591 457.756 571.436 456.375 573.112 455.784C573.211 456.079 573.31 456.277 573.408 456.573C576.07 463.871 579.127 468.409 582.084 468.409C587.112 468.409 591.451 459.433 593.915 446.019C597.267 444.145 601.211 441.58 603.38 440.101Z" fill="#1275C7" fill-opacity="0.03"/>
<path d="M535.353 449.767C531.803 443.652 534.663 435.071 542.057 426.194C545.705 421.854 550.437 417.218 556.155 412.878C555.958 415.837 555.663 421.065 556.057 424.32C553.198 426.884 550.733 429.449 548.663 431.915C543.733 437.833 541.465 442.863 542.944 445.427C544.423 447.992 549.846 448.485 557.437 447.104C566.409 445.526 577.648 441.186 589.085 434.479C600.522 427.772 609.888 420.177 615.705 413.076C620.634 407.158 622.902 402.226 621.423 399.563C618.958 395.223 609.395 395.815 597.071 400.155C595.099 398.873 591.648 396.703 587.31 394.73C607.029 386.938 624.085 386.642 628.916 395.124C632.465 401.24 629.606 409.821 622.212 418.698C615.803 426.49 605.55 434.874 593.324 442.074C581.001 449.274 568.775 453.91 558.817 455.685C547.578 457.757 538.803 455.883 535.353 449.767Z" fill="#1275C7" fill-opacity="0.03"/>
<path d="M628.817 450.062C625.268 456.177 616.592 458.051 605.254 455.98C604.761 455.881 604.366 455.782 603.873 455.684C605.057 452.725 605.747 449.371 606.043 447.201C606.24 447.3 606.535 447.3 606.733 447.3C614.324 448.582 619.747 448.187 621.226 445.623C622.704 443.059 620.437 438.028 615.507 432.11C615.211 431.814 615.014 431.518 614.719 431.223C616.296 429.743 618.564 427.869 621.324 425.403C621.62 425.699 621.916 426.094 622.113 426.39C629.507 435.365 632.268 443.946 628.817 450.062ZM542.55 419.485C534.958 410.214 531.803 401.435 535.155 395.517C538.704 389.402 547.381 387.528 558.719 389.599C559.113 389.698 559.409 389.698 559.803 389.797C559.211 391.769 558.521 394.63 558.127 398.476C557.831 398.378 557.437 398.378 557.141 398.279C549.55 396.898 544.127 397.391 542.648 399.956C540.873 403.013 543.141 408.142 548.169 413.962C546 415.836 543.733 418.104 542.55 419.485ZM602.296 419.88C598.254 416.724 593.719 413.666 588.789 410.806C583.859 407.945 578.93 405.479 574.197 403.507C574.395 401.633 574.789 398.476 575.972 394.728C581.493 396.997 587.409 399.857 593.226 403.211C598.944 406.564 604.268 410.214 608.902 413.863C607.028 415.54 604.662 417.808 602.296 419.88Z" fill="#1275C7" fill-opacity="0.03"/>
<path fill-rule="evenodd" clip-rule="evenodd" d="M582.084 430.929C586.718 430.929 590.465 427.181 590.465 422.545C590.465 417.909 586.718 414.062 582.084 414.062C577.451 414.062 573.704 417.909 573.704 422.545C573.704 427.181 577.549 430.929 582.084 430.929Z" fill="#1275C7" fill-opacity="0.03"/>
<path fill-rule="evenodd" clip-rule="evenodd" d="M305.93 106.427C305.93 106.427 291.141 90.2514 269.451 92.0268C247.859 93.9008 233.958 113.036 232.775 125.168C231.592 137.299 232.479 147.656 247.071 164.522C261.662 181.388 294.197 191.252 307.113 182.079C320.028 172.807 313.62 164.522 310.366 160.281C307.113 156.04 308.394 149.037 312.338 142.132C316.282 135.129 314.803 126.055 313.718 122.209L290.056 143.513C290.056 143.513 291.831 153.87 277.831 156.829L277.24 157.026C277.338 157.618 277.437 158.21 277.437 158.801C277.437 163.93 273.296 168.172 268.169 168.172C263.042 168.172 258.901 164.029 258.901 158.801C258.901 154.363 261.958 150.615 266.099 149.629V149.234C266.099 149.234 266.394 136.214 280.296 134.242L305.93 106.427ZM296.366 158.308C301.493 158.308 305.634 162.451 305.634 167.678C305.634 172.906 301.493 177.049 296.366 177.049C291.24 177.049 287.099 172.807 287.099 167.678C287.099 162.55 291.24 158.308 296.366 158.308ZM251.507 123.885C256.634 123.885 260.775 128.028 260.775 133.255C260.775 138.483 256.634 142.626 251.507 142.626C246.38 142.626 242.24 138.384 242.24 133.255C242.24 128.127 246.38 123.885 251.507 123.885ZM268.662 99.8188C273.789 99.8188 277.93 103.961 277.93 109.189C277.93 114.318 273.789 118.559 268.662 118.559C263.535 118.559 259.394 114.318 259.394 109.189C259.394 104.06 263.535 99.8188 268.662 99.8188Z" fill="#1275C7" fill-opacity="0.03"/>
<path fill-rule="evenodd" clip-rule="evenodd" d="M269.845 160.674C263.93 150.12 271.916 135.818 282.564 138.186L290.254 126.547L297.549 133.846L286.113 141.638C286.113 141.638 286.902 147.654 282.662 150.515C278.423 153.375 269.845 152.685 269.845 160.674Z" fill="#1275C7" fill-opacity="0.03"/>
<path fill-rule="evenodd" clip-rule="evenodd" d="M293.112 124.475C293.112 124.475 320.324 95.4772 325.943 90.8415C331.563 86.2057 342.309 77.2301 344.873 78.7096C347.436 80.1891 337.38 93.3073 333.436 97.7458C329.493 102.086 299.817 131.38 299.817 131.38L293.112 124.475Z" fill="#1275C7" fill-opacity="0.03"/>
</svg>
