<svg width="24" height="30" viewBox="0 0 24 30" fill="none" xmlns="http://www.w3.org/2000/svg">
<path fill-rule="evenodd" clip-rule="evenodd" d="M6.75 0L18.75 4.5V15H21.75C21.9489 15 22.1397 15.079 22.2803 15.2197C22.421 15.3603 22.5 15.5511 22.5 15.75V28.5H23.25C23.4489 28.5 23.6397 28.579 23.7803 28.7197C23.921 28.8603 24 29.0511 24 29.25C24 29.4489 23.921 29.6397 23.7803 29.7803C23.6397 29.921 23.4489 30 23.25 30H0.75C0.551088 30 0.360322 29.921 0.21967 29.7803C0.0790178 29.6397 0 29.4489 0 29.25C0 29.0511 0.0790178 28.8603 0.21967 28.7197C0.360322 28.579 0.551088 28.5 0.75 28.5H1.5V12.75C1.5 12.5511 1.57902 12.3603 1.71967 12.2197C1.86032 12.079 2.05109 12 2.25 12H3.75V6.75H5.25V12H6.75V0ZM21 28.5H19.5V27H17.25V28.5H15.75V16.5H21V28.5ZM6.75 13.5H3V28.5H6.75V13.5ZM10.5 6.75H9V8.25H10.5V6.75ZM12 6.75H13.5V8.25H12V6.75ZM16.5 6.75H15V8.25H16.5V6.75ZM9 9.75H10.5V11.25H9V9.75ZM13.5 9.75H12V11.25H13.5V9.75ZM15 9.75H16.5V11.25H15V9.75ZM10.5 12.75H9V14.25H10.5V12.75ZM12 12.75H13.5V14.25H12V12.75ZM16.5 12.75H15V14.25H16.5V12.75ZM9 15.75H10.5V17.25H9V15.75ZM13.5 15.75H12V17.25H13.5V15.75ZM10.5 18.75H9V20.25H10.5V18.75ZM12 18.75H13.5V20.25H12V18.75ZM9 21.75H10.5V23.25H9V21.75ZM13.5 21.75H12V23.25H13.5V21.75ZM10.5 24.75H9V26.25H10.5V24.75ZM12 24.75H13.5V26.25H12V24.75Z" fill="#3C8DBC"/>
</svg>
