<svg width="24" height="24" viewBox="0 0 24 24" fill="none" xmlns="http://www.w3.org/2000/svg">
<g id="fluent:clipboard-bullet-list-rtl-20-regular">
<path id="Vector" d="M15.2998 11.0999C15.0611 11.0999 14.8322 11.0051 14.6634 10.8363C14.4946 10.6675 14.3998 10.4386 14.3998 10.1999C14.3998 9.96121 14.4946 9.73229 14.6634 9.56351C14.8322 9.39472 15.0611 9.2999 15.2998 9.2999C15.5385 9.2999 15.7674 9.39472 15.9362 9.56351C16.105 9.73229 16.1998 9.96121 16.1998 10.1999C16.1998 10.4386 16.105 10.6675 15.9362 10.8363C15.7674 11.0051 15.5385 11.0999 15.2998 11.0999ZM15.2998 14.6999C15.0611 14.6999 14.8322 14.6051 14.6634 14.4363C14.4946 14.2675 14.3998 14.0386 14.3998 13.7999C14.3998 13.5612 14.4946 13.3323 14.6634 13.1635C14.8322 12.9947 15.0611 12.8999 15.2998 12.8999C15.5385 12.8999 15.7674 12.9947 15.9362 13.1635C16.105 13.3323 16.1998 13.5612 16.1998 13.7999C16.1998 14.0386 16.105 14.2675 15.9362 14.4363C15.7674 14.6051 15.5385 14.6999 15.2998 14.6999ZM14.3998 17.3999C14.3998 17.6386 14.4946 17.8675 14.6634 18.0363C14.8322 18.2051 15.0611 18.2999 15.2998 18.2999C15.5385 18.2999 15.7674 18.2051 15.9362 18.0363C16.105 17.8675 16.1998 17.6386 16.1998 17.3999C16.1998 17.1612 16.105 16.9323 15.9362 16.7635C15.7674 16.5947 15.5385 16.4999 15.2998 16.4999C15.0611 16.4999 14.8322 16.5947 14.6634 16.7635C14.4946 16.9323 14.3998 17.1612 14.3998 17.3999ZM13.1998 10.1999C13.1998 10.0408 13.1366 9.88816 13.0241 9.77564C12.9115 9.66312 12.7589 9.5999 12.5998 9.5999H8.3998C8.24067 9.5999 8.08806 9.66312 7.97554 9.77564C7.86302 9.88816 7.7998 10.0408 7.7998 10.1999C7.7998 10.359 7.86302 10.5116 7.97554 10.6242C8.08806 10.7367 8.24067 10.7999 8.3998 10.7999H12.5998C12.7589 10.7999 12.9115 10.7367 13.0241 10.6242C13.1366 10.5116 13.1998 10.359 13.1998 10.1999ZM13.1998 13.7999C13.1998 13.6408 13.1366 13.4882 13.0241 13.3756C12.9115 13.2631 12.7589 13.1999 12.5998 13.1999H8.3998C8.24067 13.1999 8.08806 13.2631 7.97554 13.3756C7.86302 13.4882 7.7998 13.6408 7.7998 13.7999C7.7998 13.959 7.86302 14.1116 7.97554 14.2242C8.08806 14.3367 8.24067 14.3999 8.3998 14.3999H12.5998C12.7589 14.3999 12.9115 14.3367 13.0241 14.2242C13.1366 14.1116 13.1998 13.959 13.1998 13.7999ZM13.1998 17.3999C13.1998 17.2408 13.1366 17.0882 13.0241 16.9756C12.9115 16.8631 12.7589 16.7999 12.5998 16.7999H8.3998C8.24067 16.7999 8.08806 16.8631 7.97554 16.9756C7.86302 17.0882 7.7998 17.2408 7.7998 17.3999C7.7998 17.559 7.86302 17.7116 7.97554 17.8242C8.08806 17.9367 8.24067 17.9999 8.3998 17.9999H12.5998C12.7589 17.9999 12.9115 17.9367 13.0241 17.8242C13.1366 17.7116 13.1998 17.559 13.1998 17.3999ZM10.1998 2.3999C9.82741 2.39971 9.46413 2.51502 9.16002 2.72994C8.8559 2.94486 8.62593 3.24881 8.5018 3.5999H6.5998C6.12241 3.5999 5.66458 3.78955 5.32701 4.12711C4.98945 4.46468 4.7998 4.92251 4.7998 5.3999V19.7999C4.7998 20.2773 4.98945 20.7351 5.32701 21.0727C5.66458 21.4103 6.12241 21.5999 6.5998 21.5999H17.3998C17.8772 21.5999 18.335 21.4103 18.6726 21.0727C19.0102 20.7351 19.1998 20.2773 19.1998 19.7999V5.3999C19.1998 4.92251 19.0102 4.46468 18.6726 4.12711C18.335 3.78955 17.8772 3.5999 17.3998 3.5999H15.4978C15.3737 3.24881 15.1437 2.94486 14.8396 2.72994C14.5355 2.51502 14.1722 2.39971 13.7998 2.3999H10.1998ZM9.5998 4.1999C9.5998 4.04077 9.66302 3.88816 9.77554 3.77564C9.88806 3.66312 10.0407 3.5999 10.1998 3.5999H13.7998C13.9589 3.5999 14.1115 3.66312 14.2241 3.77564C14.3366 3.88816 14.3998 4.04077 14.3998 4.1999C14.3998 4.35903 14.3366 4.51164 14.2241 4.62417C14.1115 4.73669 13.9589 4.7999 13.7998 4.7999H10.1998C10.0407 4.7999 9.88806 4.73669 9.77554 4.62417C9.66302 4.51164 9.5998 4.35903 9.5998 4.1999ZM6.5998 4.7999H8.5018C8.62593 5.151 8.8559 5.45495 9.16002 5.66987C9.46413 5.88479 9.82741 6.0001 10.1998 5.9999H13.7998C14.1722 6.0001 14.5355 5.88479 14.8396 5.66987C15.1437 5.45495 15.3737 5.151 15.4978 4.7999H17.3998C17.5589 4.7999 17.7115 4.86312 17.8241 4.97564C17.9366 5.08816 17.9998 5.24077 17.9998 5.3999V19.7999C17.9998 19.959 17.9366 20.1116 17.8241 20.2242C17.7115 20.3367 17.5589 20.3999 17.3998 20.3999H6.5998C6.44067 20.3999 6.28806 20.3367 6.17554 20.2242C6.06302 20.1116 5.9998 19.959 5.9998 19.7999V5.3999C5.9998 5.24077 6.06302 5.08816 6.17554 4.97564C6.28806 4.86312 6.44067 4.7999 6.5998 4.7999Z" fill="white"/>
</g>
</svg>
